<svg xmlns="http://www.w3.org/2000/svg" data-name="Layer 1" viewBox="0 0 128 128"><path d="M103 15v14a2 2 0 0 1-4 0V15a2 2 0 0 1 4 0zm-7.67-8.55H21.27a2 2 0 0 0-2 2v111.1a2 2 0 0 0 2 2h74.06a2 2 0 0 0 2-2V8.45a2 2 0 0 0-2-2zm-72.06 4h70.06v107.1H23.27z"/><path fill="#0a62cc" d="M48.16 10.45V35a2 2 0 0 1-1 1.76 2 2 0 0 1-1 .24 2 2 0 0 1-1.08-.32l-6.69-4.31-6.77 4.33a2 2 0 0 1-3.07-1.7V10.45h-5.28v107.1h70.06V10.45Zm6.37 27.49a2 2 0 0 1 1.91 3.44A20.54 20.54 0 0 0 76 76.78a2 2 0 0 1 1.92 3.44 24.54 24.54 0 1 1-23.4-42.28ZM47 109H31a2 2 0 0 1 0-4h16a2 2 0 0 1 0 4Zm34 0H56a2 2 0 0 1 0-4h25a2 2 0 0 1 0 4Zm3-89H56a2 2 0 0 1 0-4h28a2 2 0 0 1 0 4Z"/><path d="M101.62 6.45h-6.29a2 2 0 0 0-2 2v111.1a2 2 0 0 0 2 2h6.29a7.12 7.12 0 0 0 7.11-7.11V13.56a7.12 7.12 0 0 0-7.11-7.11Zm3.11 108a3.11 3.11 0 0 1-3.11 3.11h-4.29V10.45h4.29a3.11 3.11 0 0 1 3.11 3.11Z"/><path fill="#ce6709" d="M101.62 10.45h-4.29v107.1h4.29a3.11 3.11 0 0 0 3.11-3.11V13.56a3.11 3.11 0 0 0-3.11-3.11ZM103 29a2 2 0 0 1-4 0V15a2 2 0 0 1 4 0Z"/><path d="M78.41 77.7a2 2 0 0 0-2.4-.92 20.31 20.31 0 0 1-6.63 1.1 20.55 20.55 0 0 1-12.94-36.5 2 2 0 0 0-1.91-3.44 24.54 24.54 0 1 0 23.4 42.28 2 2 0 0 0 .48-2.52Zm-15.95 4A20.55 20.55 0 0 1 46.66 48a24.58 24.58 0 0 0 18.55 33.5 20.82 20.82 0 0 1-2.75.21Z"/><path fill="#ce6709" d="M65.21 81.53a20.82 20.82 0 0 1-2.75.18A20.55 20.55 0 0 1 46.66 48a24.58 24.58 0 0 0 18.55 33.5Z"/><path d="M46.16 6.45H30.55a2 2 0 0 0-2 2V35a2 2 0 0 0 3.07 1.69l6.77-4.32 6.69 4.31a2 2 0 0 0 1.08.32 2 2 0 0 0 1-.24 2 2 0 0 0 1-1.76V8.45a2 2 0 0 0-2-2Zm-2 24.89-4.68-3a2 2 0 0 0-2.16 0l-4.77 3V10.45h11.61Z"/><path fill="#ce6709" d="M44.16 10.45v20.89l-4.68-3a2 2 0 0 0-2.16 0l-4.77 3V10.45Z"/><path d="M49 107a2 2 0 0 1-2 2H31a2 2 0 0 1 0-4h16a2 2 0 0 1 2 2zm34 0a2 2 0 0 1-2 2H56a2 2 0 0 1 0-4h25a2 2 0 0 1 2 2zm3-89a2 2 0 0 1-2 2H56a2 2 0 0 1 0-4h28a2 2 0 0 1 2 2z"/></svg>