<svg xmlns="http://www.w3.org/2000/svg" xmlns:xlink="http://www.w3.org/1999/xlink" width="500" zoomAndPan="magnify" viewBox="0 0 375 374.999991" height="500" preserveAspectRatio="xMidYMid meet" version="1.0"><defs><g/><clipPath id="f750612b57"><path d="M 79.382812 53.488281 L 308.132812 53.488281 L 308.132812 282.238281 L 79.382812 282.238281 Z M 79.382812 53.488281 " clip-rule="nonzero"/></clipPath></defs><g fill="#38b6ff" fill-opacity="1"><g transform="translate(48.586112, 327.342107)"><g><path d="M 0.800781 0 L 13.988281 0 C 24.96875 0 31.421875 -8.375 31.421875 -19.316406 C 31.421875 -30.296875 24.96875 -38.675781 13.988281 -38.675781 L 0.800781 -38.675781 C 1.722656 -37.871094 2.203125 -35.667969 2.203125 -33.664062 L 2.203125 -5.007812 C 2.203125 -3.003906 1.722656 -0.800781 0.800781 0 Z M 11.222656 -7.613281 L 11.222656 -31.058594 L 14.828125 -31.058594 C 18.917969 -31.058594 22.402344 -26.609375 22.402344 -19.316406 C 22.402344 -12.0625 18.917969 -7.613281 14.828125 -7.613281 Z M 11.222656 -7.613281 "/></g></g></g><g fill="#38b6ff" fill-opacity="1"><g transform="translate(81.396927, 327.342107)"><g><path d="M 4.207031 0 L 15.308594 0 C 12.785156 -3.328125 11.261719 -6.972656 10.660156 -11.542969 L 21.402344 -11.542969 L 21.402344 -4.96875 C 21.402344 -2.964844 20.921875 -0.800781 20 0 L 31.820312 0 C 30.898438 -0.800781 30.417969 -3.003906 30.417969 -5.007812 L 30.417969 -35.75 C 29.257812 -37.914062 25.289062 -39.273438 21.5625 -39.273438 C 8.535156 -39.273438 1.402344 -27.414062 1.402344 -16.390625 C 1.402344 -9.859375 2.285156 -5.691406 4.207031 0 Z M 10.699219 -19.15625 C 11.503906 -24.445312 14.425781 -31.019531 21.441406 -31.019531 L 21.402344 -19.15625 Z M 10.699219 -19.15625 "/></g></g></g><g fill="#38b6ff" fill-opacity="1"><g transform="translate(113.606827, 327.342107)"><g><path d="M 0.800781 0 L 12.625 0 C 11.703125 -0.800781 11.222656 -2.964844 11.222656 -4.96875 L 11.222656 -33.703125 C 11.222656 -35.707031 11.703125 -37.871094 12.625 -38.675781 L 0.800781 -38.675781 C 1.722656 -37.871094 2.203125 -35.667969 2.203125 -33.664062 L 2.203125 -5.007812 C 2.203125 -3.003906 1.722656 -0.800781 0.800781 0 Z M 0.800781 0 "/></g></g></g><g fill="#38b6ff" fill-opacity="1"><g transform="translate(127.027618, 327.342107)"><g><path d="M 0.800781 0 L 28.65625 0 L 28.65625 -9.859375 C 26.691406 -8.015625 23.644531 -7.613281 21.679688 -7.613281 L 11.222656 -7.613281 L 11.222656 -33.703125 C 11.222656 -35.707031 11.703125 -37.871094 12.625 -38.675781 L 0.800781 -38.675781 C 1.722656 -37.871094 2.203125 -35.667969 2.203125 -33.664062 L 2.203125 -5.007812 C 2.203125 -3.003906 1.722656 -0.800781 0.800781 0 Z M 0.800781 0 "/></g></g></g><g fill="#38b6ff" fill-opacity="1"><g transform="translate(156.47323, 327.342107)"><g><path d="M 0.402344 -38.675781 C 1.761719 -37.792969 2.644531 -36.027344 3.726562 -33.90625 C 7.933594 -25.648438 9.617188 -21.519531 13.265625 -13.867188 L 13.265625 -5.007812 C 13.265625 -3.003906 12.785156 -0.800781 11.863281 0 L 23.683594 0 C 22.761719 -0.800781 22.28125 -2.964844 22.28125 -4.96875 L 22.28125 -13.785156 C 25.929688 -21.441406 27.613281 -25.570312 31.820312 -33.824219 C 32.902344 -35.949219 33.785156 -37.710938 35.148438 -38.59375 L 20.597656 -38.59375 C 21.5625 -37.390625 21.722656 -36.46875 21.722656 -35.386719 C 21.722656 -32.261719 19.117188 -25.6875 17.792969 -22.324219 C 16.429688 -25.769531 13.828125 -32.34375 13.828125 -35.46875 C 13.828125 -36.550781 13.988281 -37.472656 14.949219 -38.675781 Z M 0.402344 -38.675781 "/></g></g></g><g fill="#38b6ff" fill-opacity="1"><g transform="translate(192.008274, 327.342107)"><g><path d="M 0.800781 0 L 12.625 0 C 11.703125 -0.800781 11.222656 -2.964844 11.222656 -4.96875 L 11.222656 -33.703125 C 11.222656 -35.707031 11.703125 -37.871094 12.625 -38.675781 L 0.800781 -38.675781 C 1.722656 -37.871094 2.203125 -35.667969 2.203125 -33.664062 L 2.203125 -5.007812 C 2.203125 -3.003906 1.722656 -0.800781 0.800781 0 Z M 0.800781 0 "/></g></g></g><g fill="#38b6ff" fill-opacity="1"><g transform="translate(205.429064, 327.342107)"><g><path d="M 0.800781 -6.574219 C 1.84375 -3.125 8.296875 0.601562 15.027344 0.601562 C 24.007812 0.601562 30.859375 -3.96875 30.859375 -11.824219 C 30.859375 -25.410156 11.824219 -21.121094 11.824219 -27.492188 C 11.824219 -30.097656 14.988281 -31.140625 17.554688 -31.140625 C 21.160156 -31.140625 24.367188 -29.296875 26.652344 -27.210938 C 28.015625 -29.898438 29.777344 -32.183594 31.140625 -34.265625 C 28.734375 -36.308594 25.007812 -39.273438 17.351562 -39.273438 C 9.457031 -39.273438 1.5625 -34.828125 1.5625 -27.253906 C 1.5625 -13.507812 21 -16.953125 21 -11.0625 C 21 -8.335938 18.234375 -7.253906 15.269531 -7.253906 C 11.179688 -7.253906 7.453125 -10.019531 5.371094 -13.34375 C 4.207031 -10.980469 2.523438 -8.65625 0.800781 -6.574219 Z M 0.800781 -6.574219 "/></g></g></g><g fill="#38b6ff" fill-opacity="1"><g transform="translate(237.358528, 327.342107)"><g><path d="M 0.800781 0 L 28.65625 0 L 28.65625 -9.859375 C 26.691406 -8.015625 23.644531 -7.613281 21.679688 -7.613281 L 11.222656 -7.613281 L 11.222656 -33.703125 C 11.222656 -35.707031 11.703125 -37.871094 12.625 -38.675781 L 0.800781 -38.675781 C 1.722656 -37.871094 2.203125 -35.667969 2.203125 -33.664062 L 2.203125 -5.007812 C 2.203125 -3.003906 1.722656 -0.800781 0.800781 0 Z M 0.800781 0 "/></g></g></g><g fill="#38b6ff" fill-opacity="1"><g transform="translate(266.804139, 327.342107)"><g><path d="M 4.207031 0 L 15.308594 0 C 12.785156 -3.328125 11.261719 -6.972656 10.660156 -11.542969 L 21.402344 -11.542969 L 21.402344 -4.96875 C 21.402344 -2.964844 20.921875 -0.800781 20 0 L 31.820312 0 C 30.898438 -0.800781 30.417969 -3.003906 30.417969 -5.007812 L 30.417969 -35.75 C 29.257812 -37.914062 25.289062 -39.273438 21.5625 -39.273438 C 8.535156 -39.273438 1.402344 -27.414062 1.402344 -16.390625 C 1.402344 -9.859375 2.285156 -5.691406 4.207031 0 Z M 10.699219 -19.15625 C 11.503906 -24.445312 14.425781 -31.019531 21.441406 -31.019531 L 21.402344 -19.15625 Z M 10.699219 -19.15625 "/></g></g></g><g fill="#38b6ff" fill-opacity="1"><g transform="translate(299.01404, 327.342107)"><g><path d="M 12.625 0 C 11.703125 -0.800781 11.222656 -3.003906 11.222656 -5.007812 L 11.222656 -22.441406 L 20.117188 -1.121094 L 28.976562 -22.324219 L 28.976562 -5.007812 C 28.976562 -3.003906 28.496094 -0.800781 27.574219 0 L 39.394531 0 C 38.472656 -0.800781 37.992188 -2.964844 37.992188 -4.96875 L 37.992188 -33.703125 C 37.992188 -35.707031 38.472656 -37.871094 39.394531 -38.675781 L 28.976562 -38.675781 L 20.117188 -18.273438 L 11.222656 -38.675781 L 0.800781 -38.675781 C 1.722656 -37.871094 2.203125 -35.707031 2.203125 -33.703125 L 2.203125 -4.96875 C 2.203125 -2.964844 1.722656 -0.800781 0.800781 0 Z M 12.625 0 "/></g></g></g><g clip-path="url(#f750612b57)"><path fill="#38b6ff" d="M 246.046875 211.261719 C 242.988281 211.09375 239.769531 211.007812 236.414062 211.007812 C 220.96875 211.007812 203.167969 212.746094 184.9375 216.027344 C 172.390625 218.289062 160.285156 221.171875 149.277344 224.484375 C 147.011719 219.078125 145.769531 213.179688 145.769531 207.007812 C 145.769531 180.773438 191.964844 166.605469 196.007812 143.671875 C 200.050781 166.605469 246.246094 180.773438 246.246094 207.007812 C 246.246094 208.441406 246.179688 209.859375 246.046875 211.261719 Z M 124.976562 233.328125 C 123.800781 233.851562 122.667969 234.371094 121.570312 234.894531 L 122.28125 170.449219 L 158.804688 170.449219 L 159.085938 176.9375 C 156.054688 179.601562 153.1875 182.355469 150.683594 185.242188 C 144.414062 192.488281 141.367188 199.605469 141.367188 207.007812 C 141.367188 213.492188 142.609375 219.808594 145.058594 225.796875 C 137.738281 228.136719 130.976562 230.667969 124.976562 233.328125 Z M 119.117188 163.957031 C 119.117188 161.714844 121.035156 159.898438 123.402344 159.898438 L 125.605469 159.898438 L 125.605469 121.078125 L 126.839844 121.078125 C 124.476562 121.078125 122.558594 119.261719 122.558594 117.019531 C 122.558594 115.9375 123.007812 114.957031 123.734375 114.226562 C 123.726562 114.21875 123.722656 114.207031 123.714844 114.195312 L 157.027344 114.195312 C 157.019531 114.207031 157.011719 114.21875 157.003906 114.226562 C 157.734375 114.957031 158.183594 115.9375 158.183594 117.019531 C 158.183594 119.261719 156.265625 121.078125 153.898438 121.078125 L 155.136719 121.078125 L 155.136719 159.898438 L 157.339844 159.898438 C 159.707031 159.898438 161.625 161.714844 161.625 163.957031 C 161.625 166.007812 160.011719 167.703125 157.921875 167.972656 L 122.820312 167.972656 C 120.726562 167.703125 119.117188 166.007812 119.117188 163.957031 Z M 122.558594 107.121094 C 122.558594 95.113281 138.9375 88.628906 140.371094 78.132812 C 141.800781 88.628906 158.183594 95.113281 158.183594 107.121094 L 158.183594 107.167969 C 158.179688 109.691406 156.101562 111.71875 153.582031 111.71875 L 127.160156 111.71875 C 124.636719 111.71875 122.5625 109.691406 122.558594 107.167969 Z M 192.292969 113.414062 C 189.269531 116.03125 187.355469 119.898438 187.355469 124.214844 C 187.355469 132.101562 193.753906 138.5 201.640625 138.5 C 203.855469 138.5 205.953125 137.996094 207.824219 137.09375 C 205.316406 139.265625 202.050781 140.578125 198.472656 140.578125 C 190.585938 140.578125 184.191406 134.183594 184.191406 126.292969 C 184.191406 120.621094 187.5 115.71875 192.292969 113.414062 Z M 195.351562 119.984375 L 199.464844 124.597656 L 205.125 122.105469 L 202.011719 127.449219 L 206.128906 132.058594 L 200.085938 130.746094 L 196.972656 136.089844 L 196.355469 129.9375 L 190.3125 128.625 L 195.96875 126.136719 Z M 193.753906 53.488281 C 130.585938 53.488281 79.382812 104.695312 79.382812 167.859375 C 79.382812 198.441406 91.390625 226.21875 110.941406 246.742188 C 124.632812 241.332031 141.410156 236.359375 159.785156 232.554688 C 209.132812 222.347656 251.285156 224.453125 253.9375 237.261719 C 255.480469 244.734375 243.234375 254.203125 222.957031 262.820312 C 234.902344 256.164062 241.519531 249.429688 240.359375 243.820312 C 237.707031 231.011719 195.554688 228.90625 146.207031 239.117188 C 127.644531 242.957031 110.710938 247.992188 96.945312 253.464844 C 102.253906 252.042969 107.839844 250.710938 113.652344 249.496094 C 134.285156 269.742188 162.5625 282.230469 193.753906 282.230469 C 229.367188 282.230469 261.179688 265.953125 282.15625 240.429688 C 283.195312 238.472656 283.585938 236.566406 283.257812 234.75 C 280.632812 220.160156 232.929688 216.535156 176.710938 226.660156 C 152.84375 230.960938 131.28125 237.046875 114.566406 243.742188 C 130.636719 233.933594 159.257812 224.226562 192.640625 218.214844 C 244.15625 208.9375 288.113281 211.863281 293.078125 224.601562 C 302.652344 207.878906 308.125 188.507812 308.125 167.859375 C 308.125 104.695312 256.917969 53.488281 193.753906 53.488281 Z M 131.792969 135.679688 C 131.792969 131.046875 130.402344 128.539062 130.277344 124.484375 C 130.160156 128.539062 128.765625 131.046875 128.765625 135.679688 L 128.765625 157.191406 L 131.792969 157.191406 Z M 153.171875 135.679688 C 153.171875 131.046875 151.777344 128.539062 151.65625 124.484375 C 151.535156 128.539062 150.140625 131.046875 150.140625 135.679688 L 150.140625 157.191406 L 153.171875 157.191406 Z M 146.628906 135.679688 C 146.628906 131.046875 141.199219 128.539062 140.722656 124.484375 C 140.25 128.539062 134.816406 131.046875 134.816406 135.679688 L 134.816406 157.191406 L 146.628906 157.191406 L 146.628906 135.679688 " fill-opacity="1" fill-rule="nonzero"/></g></svg>