<svg width="765" height="573" viewBox="0 0 765 573" fill="none" xmlns="http://www.w3.org/2000/svg">
<g clip-path="url(#clip0_0_1)">
<path d="M731.173 531.568H156C147.251 531.558 138.863 528.078 132.676 521.892C126.49 515.705 123.01 507.317 123 498.568V191.568C123.01 182.819 126.49 174.431 132.676 168.244C138.863 162.058 147.251 158.578 156 158.568H731.173C739.922 158.578 748.31 162.058 754.496 168.244C760.683 174.431 764.163 182.819 764.173 191.568V498.568C764.163 507.317 760.683 515.705 754.496 521.892C748.31 528.078 739.922 531.558 731.173 531.568V531.568Z" fill="white"/>
<path d="M731.173 531.568H156C147.251 531.558 138.863 528.078 132.676 521.892C126.49 515.705 123.01 507.317 123 498.568V191.568C123.01 182.819 126.49 174.431 132.676 168.244C138.863 162.058 147.251 158.578 156 158.568H731.173C739.922 158.578 748.31 162.058 754.496 168.244C760.683 174.431 764.163 182.819 764.173 191.568V498.568C764.163 507.317 760.683 515.705 754.496 521.892C748.31 528.078 739.922 531.558 731.173 531.568V531.568ZM156 160.568C147.781 160.577 139.902 163.846 134.09 169.658C128.278 175.47 125.009 183.349 125 191.568V498.568C125.009 506.787 128.278 514.666 134.09 520.478C139.902 526.29 147.781 529.559 156 529.568H731.173C739.392 529.559 747.271 526.29 753.083 520.478C758.894 514.666 762.164 506.787 762.173 498.568V191.568C762.164 183.349 758.894 175.47 753.083 169.658C747.271 163.846 739.392 160.577 731.173 160.568H156Z" fill="#F2F2F2"/>
<path d="M731.173 507.568H156C153.614 507.565 151.326 506.616 149.639 504.929C147.952 503.242 147.003 500.954 147 498.568V191.568C147.003 189.182 147.952 186.894 149.639 185.207C151.326 183.52 153.614 182.571 156 182.568H731.173C733.559 182.571 735.847 183.52 737.534 185.207C739.221 186.894 740.17 189.182 740.173 191.568V498.568C740.17 500.954 739.221 503.242 737.534 504.929C735.847 506.616 733.559 507.565 731.173 507.568V507.568ZM156 184.568C154.144 184.57 152.365 185.308 151.053 186.621C149.74 187.933 149.002 189.712 149 191.568V498.568C149.002 500.424 149.74 502.203 151.053 503.515C152.365 504.828 154.144 505.566 156 505.568H731.173C733.029 505.566 734.808 504.828 736.12 503.515C737.433 502.203 738.171 500.424 738.173 498.568V191.568C738.171 189.712 737.433 187.933 736.12 186.621C734.808 185.308 733.029 184.57 731.173 184.568H156Z" fill="#F2F2F2"/>
<path d="M584.785 509.031L28.814 361.653C20.3595 359.402 13.1432 353.889 8.74842 346.323C4.35358 338.758 3.13906 329.759 5.37133 321.299L84.0345 24.5481C86.2858 16.0936 91.7988 8.87737 99.3641 4.48254C106.929 0.0877042 115.929 -1.1268 124.388 1.10546L680.359 148.483C688.814 150.734 696.03 156.247 700.425 163.813C704.82 171.378 706.034 180.377 703.802 188.837L625.139 485.588C622.888 494.042 617.374 501.259 609.809 505.653C602.244 510.048 593.244 511.263 584.785 509.031V509.031Z" fill="#CCCCCC"/>
<path d="M584.785 509.031L28.814 361.653C20.3595 359.402 13.1432 353.889 8.74842 346.323C4.35358 338.758 3.13906 329.759 5.37133 321.299L84.0345 24.5481C86.2858 16.0936 91.7988 8.87737 99.3641 4.48254C106.929 0.0877042 115.929 -1.1268 124.388 1.10546L680.359 148.483C688.814 150.734 696.03 156.247 700.425 163.813C704.82 171.378 706.034 180.377 703.802 188.837L625.139 485.588C622.888 494.042 617.374 501.259 609.809 505.653C602.244 510.048 593.244 511.263 584.785 509.031V509.031ZM123.876 3.03869C115.929 0.941755 107.475 2.08267 100.368 6.21114C93.2615 10.3396 88.0826 17.1185 85.9677 25.0606L7.30457 321.811C5.20764 329.758 6.34857 338.213 10.477 345.319C14.6055 352.426 21.3844 357.605 29.3265 359.72L585.297 507.097C593.244 509.194 601.698 508.053 608.805 503.925C615.912 499.796 621.091 493.017 623.206 485.075L701.869 188.324C703.966 180.378 702.825 171.923 698.696 164.817C694.568 157.71 687.789 152.531 679.847 150.416L123.876 3.03869Z" fill="#E6E6E6"/>
<path d="M590.934 485.832L34.9631 338.454C32.6574 337.84 30.6893 336.337 29.4907 334.273C28.2922 332.21 27.9609 329.756 28.5697 327.449L107.233 30.6977C107.847 28.3919 109.35 26.4239 111.414 25.2253C113.477 24.0267 115.931 23.6955 118.238 24.3042L674.209 171.682C676.515 172.296 678.483 173.799 679.682 175.863C680.88 177.926 681.212 180.38 680.603 182.687L601.94 479.438C601.326 481.744 599.822 483.712 597.759 484.911C595.696 486.109 593.241 486.441 590.934 485.832ZM117.726 26.2375C115.932 25.764 114.023 26.0216 112.418 26.9538C110.813 27.886 109.644 29.4168 109.166 31.2102L30.5029 327.961C30.0294 329.756 30.287 331.665 31.2192 333.269C32.1515 334.874 33.6822 336.043 35.4756 336.521L591.447 483.899C593.241 484.372 595.15 484.114 596.755 483.182C598.359 482.25 599.529 480.719 600.006 478.926L678.67 182.175C679.143 180.38 678.885 178.471 677.953 176.867C677.021 175.262 675.49 174.093 673.697 173.615L117.726 26.2375Z" fill="white"/>
<path d="M608.173 572.568H33C24.2509 572.558 15.863 569.078 9.67639 562.892C3.48983 556.705 0.00988299 548.317 0 539.568V232.568C0.00988299 223.819 3.48983 215.431 9.67639 209.244C15.863 203.058 24.2509 199.578 33 199.568H608.173C616.922 199.578 625.31 203.058 631.496 209.244C637.683 215.431 641.163 223.819 641.173 232.568V539.568C641.163 548.317 637.683 556.705 631.496 562.892C625.31 569.078 616.922 572.558 608.173 572.568V572.568Z" fill="white"/>
<path d="M451.904 546.568H80.4744C80.0093 546.57 79.5447 546.558 79.0864 546.532L254.756 447.599C258.101 445.676 265.605 445 271.518 446.087C273.139 446.337 274.709 446.847 276.167 447.599L394.063 513.991L399.711 517.168L451.904 546.568Z" fill="#E6E6E6"/>
<path d="M569.087 546.568H247.83L310.083 517.168L314.563 515.05L395.685 476.735C401.003 474.224 413.797 474.068 420.05 476.262C420.47 476.411 420.859 476.569 421.218 476.735L569.087 546.568Z" fill="#E6E6E6"/>
<path d="M33 201.568C24.7811 201.577 16.9016 204.846 11.09 210.658C5.27837 216.47 2.00932 224.349 2 232.568V539.568C2.00932 547.787 5.27837 555.666 11.09 561.478C16.9016 567.29 24.7811 570.559 33 570.568H608.173C616.392 570.559 624.271 567.29 630.083 561.478C635.894 555.666 639.164 547.787 639.173 539.568V232.568C639.164 224.349 635.894 216.47 630.083 210.658C624.271 204.846 616.392 201.577 608.173 201.568H33Z" fill="#3F3D56"/>
<path d="M608.173 548.568H33C30.6139 548.565 28.3263 547.616 26.6391 545.929C24.9518 544.242 24.0027 541.954 24 539.568V232.568C24.0027 230.182 24.9518 227.894 26.6391 226.207C28.3263 224.52 30.6139 223.571 33 223.568H608.173C610.559 223.571 612.847 224.52 614.534 226.207C616.221 227.894 617.17 230.182 617.173 232.568V539.568C617.17 541.954 616.221 544.242 614.534 545.929C612.847 547.616 610.559 548.565 608.173 548.568V548.568ZM33 225.568C31.1441 225.57 29.3649 226.308 28.0526 227.621C26.7402 228.933 26.0021 230.712 26 232.568V539.568C26.0021 541.424 26.7402 543.203 28.0526 544.515C29.3649 545.828 31.1441 546.566 33 546.568H608.173C610.029 546.566 611.808 545.828 613.12 544.515C614.433 543.203 615.171 541.424 615.173 539.568V232.568C615.171 230.712 614.433 228.933 613.12 227.621C611.808 226.308 610.029 225.57 608.173 225.568H33Z" fill="#CCCCCC"/>
<path d="M480.017 279.762C514.205 279.762 541.92 252.047 541.92 217.859C541.92 183.671 514.205 155.956 480.017 155.956C445.829 155.956 418.114 183.671 418.114 217.859C418.114 252.047 445.829 279.762 480.017 279.762Z" fill="#FF6584"/>
<path d="M505.896 443.236C549.197 443.236 584.299 399.299 584.299 345.099C584.299 290.899 549.197 246.962 505.896 246.962C462.595 246.962 427.493 290.899 427.493 345.099C427.493 399.299 462.595 443.236 505.896 443.236Z" fill="#F2F2F2"/>
<path d="M506.112 325.365H506.327L510.204 547.65H502.019L506.112 325.365Z" fill="#CCCCCC"/>
<path d="M519.484 472.525C519.724 472.98 519.773 473.511 519.62 474.002C519.468 474.493 519.127 474.904 518.672 475.143L507.427 481.063L505.621 477.633L516.866 471.713C517.321 471.473 517.852 471.424 518.343 471.576C518.834 471.729 519.244 472.07 519.484 472.525V472.525Z" fill="#CCCCCC"/>
<path d="M280.49 443.236C323.79 443.236 358.893 399.299 358.893 345.099C358.893 290.899 323.79 246.962 280.49 246.962C237.189 246.962 202.086 290.899 202.086 345.099C202.086 399.299 237.189 443.236 280.49 443.236Z" fill="#F2F2F2"/>
<path d="M294.078 476.2V476.2C293.838 475.745 293.428 475.404 292.937 475.252C292.446 475.099 291.914 475.148 291.459 475.388L283.609 479.521L280.92 325.365H280.705L276.613 547.651H284.797L283.685 483.863L293.266 478.818C293.72 478.579 294.061 478.168 294.214 477.677C294.366 477.186 294.317 476.655 294.078 476.2V476.2Z" fill="#CCCCCC"/>
<path d="M392.92 118.937C447.787 118.937 492.382 222.319 492.382 290.996C492.382 359.673 447.904 415.346 393.037 415.346C338.17 415.346 293.692 359.673 293.692 290.996C293.692 222.319 338.053 118.937 392.92 118.937Z" fill="#38BDF8"/>
<path d="M410.255 456.115C410.104 455.83 409.899 455.577 409.651 455.37C409.403 455.164 409.117 455.009 408.809 454.913C408.501 454.818 408.177 454.784 407.856 454.813C407.535 454.843 407.223 454.936 406.937 455.086L396.99 460.323L393.583 264.991H393.31L388.125 546.65H398.496L397.086 465.824L409.226 459.433C409.511 459.283 409.764 459.078 409.97 458.829C410.177 458.581 410.332 458.295 410.427 457.987C410.523 457.679 410.557 457.355 410.527 457.034C410.498 456.713 410.405 456.4 410.255 456.115Z" fill="#3F3D56"/>
<path d="M610.173 570.568H35C26.2509 570.558 17.863 567.078 11.6764 560.892C5.48983 554.705 2.00988 546.317 2 537.568V230.568C2.00988 221.819 5.48983 213.431 11.6764 207.244C17.863 201.058 26.2509 197.578 35 197.568H610.173C618.922 197.578 627.31 201.058 633.496 207.244C639.683 213.431 643.163 221.819 643.173 230.568V537.568C643.163 546.317 639.683 554.705 633.496 560.892C627.31 567.078 618.922 570.558 610.173 570.568V570.568Z" fill="#F2F2F2"/>
<path d="M453.904 544.568H82.4744C82.0093 544.57 81.5447 544.558 81.0864 544.532L256.756 445.599C260.101 443.676 267.605 443 273.518 444.087C275.139 444.337 276.709 444.847 278.167 445.599L396.063 511.991L401.711 515.168L453.904 544.568Z" fill="#E6E6E6"/>
<path d="M571.087 544.568H249.83L312.083 515.168L316.563 513.05L397.685 474.735C403.003 472.224 415.797 472.068 422.05 474.262C422.47 474.411 422.859 474.569 423.218 474.735L571.087 544.568Z" fill="#E6E6E6"/>
<path d="M610.173 570.568H35C26.2509 570.558 17.863 567.078 11.6764 560.892C5.48983 554.705 2.00988 546.317 2 537.568V230.568C2.00988 221.819 5.48983 213.431 11.6764 207.244C17.863 201.058 26.2509 197.578 35 197.568H610.173C618.922 197.578 627.31 201.058 633.496 207.244C639.683 213.431 643.163 221.819 643.173 230.568V537.568C643.163 546.317 639.683 554.705 633.496 560.892C627.31 567.078 618.922 570.558 610.173 570.568V570.568ZM35 199.568C26.7811 199.577 18.9016 202.846 13.09 208.658C7.27837 214.47 4.00932 222.349 4 230.568V537.568C4.00932 545.787 7.27837 553.666 13.09 559.478C18.9016 565.29 26.7811 568.559 35 568.568H610.173C618.392 568.559 626.271 565.29 632.083 559.478C637.894 553.666 641.164 545.787 641.173 537.568V230.568C641.164 222.349 637.894 214.47 632.083 208.658C626.271 202.846 618.392 199.577 610.173 199.568H35Z" fill="#3F3D56"/>
<path d="M610.173 546.568H35C32.6139 546.565 30.3263 545.616 28.6391 543.929C26.9518 542.242 26.0027 539.954 26 537.568V230.568C26.0027 228.182 26.9518 225.894 28.6391 224.207C30.3263 222.52 32.6139 221.571 35 221.568H610.173C612.559 221.571 614.847 222.52 616.534 224.207C618.221 225.894 619.17 228.182 619.173 230.568V537.568C619.17 539.954 618.221 542.242 616.534 543.929C614.847 545.616 612.559 546.565 610.173 546.568V546.568ZM35 223.568C33.1441 223.57 31.3649 224.308 30.0526 225.621C28.7402 226.933 28.0021 228.712 28 230.568V537.568C28.0021 539.424 28.7402 541.203 30.0526 542.515C31.3649 543.828 33.1441 544.566 35 544.568H610.173C612.029 544.566 613.808 543.828 615.12 542.515C616.433 541.203 617.171 539.424 617.173 537.568V230.568C617.171 228.712 616.433 226.933 615.12 225.621C613.808 224.308 612.029 223.57 610.173 223.568H35Z" fill="#CCCCCC"/>
<path d="M482.017 277.762C516.205 277.762 543.92 250.047 543.92 215.859C543.92 181.671 516.205 153.956 482.017 153.956C447.829 153.956 420.114 181.671 420.114 215.859C420.114 250.047 447.829 277.762 482.017 277.762Z" fill="#FF6584"/>
<path d="M507.896 441.236C551.197 441.236 586.299 397.299 586.299 343.099C586.299 288.899 551.197 244.962 507.896 244.962C464.595 244.962 429.493 288.899 429.493 343.099C429.493 397.299 464.595 441.236 507.896 441.236Z" fill="#F2F2F2"/>
<path d="M508.112 323.365H508.327L512.204 545.65H504.019L508.112 323.365Z" fill="#CCCCCC"/>
<path d="M521.484 470.525C521.724 470.98 521.773 471.511 521.62 472.002C521.468 472.493 521.127 472.904 520.672 473.143L509.427 479.063L507.621 475.633L518.866 469.713C519.321 469.473 519.852 469.424 520.343 469.576C520.834 469.729 521.244 470.07 521.484 470.525Z" fill="#CCCCCC"/>
<path d="M282.49 441.236C325.79 441.236 360.893 397.299 360.893 343.099C360.893 288.899 325.79 244.962 282.49 244.962C239.189 244.962 204.086 288.899 204.086 343.099C204.086 397.299 239.189 441.236 282.49 441.236Z" fill="#F2F2F2"/>
<path d="M296.078 474.2V474.2C295.838 473.745 295.428 473.404 294.937 473.252C294.446 473.099 293.914 473.148 293.459 473.388L285.609 477.521L282.92 323.365H282.705L278.613 545.651H286.797L285.685 481.863L295.266 476.818C295.72 476.579 296.061 476.168 296.214 475.677C296.366 475.186 296.317 474.655 296.078 474.2V474.2Z" fill="#CCCCCC"/>
<path d="M394.92 116.937C449.787 116.937 494.382 220.319 494.382 288.996C494.382 357.673 449.904 413.346 395.037 413.346C340.17 413.346 295.692 357.673 295.692 288.996C295.692 220.319 340.053 116.937 394.92 116.937Z" fill="#38BDF8"/>
<path d="M412.255 454.115C412.104 453.83 411.899 453.577 411.651 453.37C411.403 453.164 411.117 453.009 410.809 452.913C410.501 452.818 410.177 452.784 409.856 452.813C409.535 452.843 409.223 452.936 408.937 453.086L398.99 458.323L395.583 262.991H395.31L390.125 544.65H400.496L399.086 463.824L411.226 457.433C411.511 457.283 411.764 457.078 411.97 456.829C412.177 456.581 412.332 456.295 412.427 455.987C412.523 455.679 412.557 455.355 412.527 455.034C412.498 454.713 412.405 454.4 412.255 454.115V454.115Z" fill="#3F3D56"/>
</g>
<defs>
<clipPath id="clip0_0_1">
<rect width="764.173" height="572.568" fill="white"/>
</clipPath>
</defs>
</svg>
