<svg width="934" height="934" viewBox="0 0 934 934" fill="none" xmlns="http://www.w3.org/2000/svg">
<path d="M398.132 295.22H427.299V330.22H398.132C388.465 330.22 380.632 322.387 380.632 312.72C380.632 303.053 388.465 295.22 398.132 295.22Z" fill="#38BDF8"/>
<path d="M485.625 178.553C445.401 178.553 406.823 194.532 378.38 222.975C349.937 251.417 333.958 289.996 333.958 330.22C333.958 370.444 349.937 409.023 378.38 437.465C406.823 465.908 445.401 481.887 485.625 481.887C525.849 481.887 564.428 465.908 592.87 437.465C621.313 409.023 637.292 370.444 637.292 330.22C637.292 289.996 621.313 251.417 592.87 222.975C564.428 194.532 525.849 178.553 485.625 178.553ZM543.959 376.887C543.959 386.168 540.271 395.075 533.709 401.636C527.146 408.197 518.239 411.886 508.959 411.886C500.339 411.865 492.032 408.667 485.626 402.902C479.22 408.667 470.912 411.865 462.292 411.886C453.011 411.886 444.105 408.199 437.543 401.636C430.982 395.074 427.293 386.167 427.293 376.887V353.553H398.127C383.539 353.553 370.058 345.772 362.762 333.137C355.471 320.502 355.471 304.94 362.762 292.304C370.059 279.669 383.539 271.888 398.127 271.888H427.293V260.221C427.293 253.779 432.517 248.555 438.96 248.555C445.403 248.555 450.627 253.779 450.627 260.221V376.888C450.627 383.331 455.851 388.555 462.293 388.555C468.736 388.555 473.96 383.331 473.96 376.888V260.221C473.96 253.779 479.184 248.555 485.627 248.555C492.069 248.555 497.293 253.779 497.293 260.221V376.888C497.293 383.331 502.517 388.555 508.96 388.555C515.403 388.555 520.627 383.331 520.627 376.888V260.221C520.627 253.779 525.851 248.555 532.293 248.555C538.736 248.555 543.96 253.779 543.96 260.221L543.959 376.887ZM590.625 400.22C590.625 406.663 585.401 411.887 578.959 411.887C572.516 411.887 567.292 406.663 567.292 400.22V260.22C567.292 253.777 572.516 248.553 578.959 248.553C585.401 248.553 590.625 253.777 590.625 260.22V400.22Z" fill="#38BDF8"/>
<path d="M664.012 256.833C661.824 254.635 660.611 251.651 660.626 248.552V155.219H567.293C564.194 155.234 561.21 154.021 559.012 151.833L485.626 78.3333L412.241 151.833C410.043 154.021 407.059 155.234 403.96 155.219H310.627V248.552C310.642 251.651 309.429 254.635 307.241 256.833L233.741 330.219L307.241 403.604C309.429 405.802 310.642 408.786 310.627 411.885V505.219H403.96C407.059 505.203 410.043 506.416 412.241 508.604L485.626 582.104L559.012 508.604C561.21 506.417 564.194 505.203 567.293 505.219H660.626V411.885C660.611 408.786 661.824 405.802 664.012 403.604L737.512 330.219L664.012 256.833ZM485.625 505.22C439.213 505.22 394.698 486.783 361.88 453.965C329.062 421.148 310.625 376.632 310.625 330.22C310.625 283.808 329.062 239.293 361.88 206.475C394.697 173.657 439.213 155.22 485.625 155.22C532.037 155.22 576.552 173.657 609.37 206.475C642.188 239.292 660.625 283.808 660.625 330.22C660.625 376.632 642.188 421.147 609.37 453.965C576.553 486.783 532.037 505.22 485.625 505.22ZM664.012 256.833C661.824 254.635 660.611 251.651 660.626 248.552V155.219H567.293C564.194 155.234 561.21 154.021 559.012 151.833L485.626 78.3333L412.241 151.833C410.043 154.021 407.059 155.234 403.96 155.219H310.627V248.552C310.642 251.651 309.429 254.635 307.241 256.833L233.741 330.219L307.241 403.604C309.429 405.802 310.642 408.786 310.627 411.885V505.219H403.96C407.059 505.203 410.043 506.416 412.241 508.604L485.626 582.104L559.012 508.604C561.21 506.417 564.194 505.203 567.293 505.219H660.626V411.885C660.611 408.786 661.824 405.802 664.012 403.604L737.512 330.219L664.012 256.833ZM485.625 505.22C439.213 505.22 394.698 486.783 361.88 453.965C329.062 421.148 310.625 376.632 310.625 330.22C310.625 283.808 329.062 239.293 361.88 206.475C394.697 173.657 439.213 155.22 485.625 155.22C532.037 155.22 576.552 173.657 609.37 206.475C642.188 239.292 660.625 283.808 660.625 330.22C660.625 376.632 642.188 421.147 609.37 453.965C576.553 486.783 532.037 505.22 485.625 505.22ZM710.678 245.167C708.491 242.969 707.277 239.984 707.293 236.885V108.552H578.96C575.861 108.568 572.876 107.354 570.678 105.167L485.626 20L400.574 105.167C398.377 107.354 395.392 108.568 392.293 108.552H263.96V236.885C263.975 239.984 262.762 242.969 260.574 245.167L175.408 330.219L260.574 415.271C262.762 417.469 263.975 420.453 263.96 423.552V551.885H392.293C395.392 551.87 398.377 553.083 400.574 555.271L485.626 640.437L570.678 555.271C572.876 553.083 575.861 551.87 578.96 551.885H707.293V423.552C707.277 420.453 708.491 417.469 710.678 415.271L795.845 330.219L710.678 245.167ZM683.96 416.66V516.879C683.96 519.972 682.731 522.941 680.543 525.129C678.356 527.316 675.387 528.545 672.293 528.545H572.074L493.908 606.827C491.72 609.035 488.736 610.28 485.627 610.28C482.517 610.28 479.533 609.035 477.345 606.827L399.179 528.545H298.96C292.517 528.545 287.293 523.321 287.293 516.879V416.66L209.012 338.493C206.804 336.306 205.559 333.322 205.559 330.212C205.559 327.103 206.804 324.118 209.012 321.931L287.293 243.764V143.546C287.293 137.103 292.517 131.879 298.96 131.879H399.179L477.345 53.5976C479.533 51.3893 482.517 50.1445 485.627 50.1445C488.736 50.1445 491.72 51.3893 493.908 53.5976L572.074 131.879H672.293C675.387 131.879 678.356 133.108 680.543 135.296C682.731 137.483 683.96 140.452 683.96 143.546V243.764L762.241 321.931C764.449 324.118 765.694 327.103 765.694 330.212C765.694 333.322 764.449 336.306 762.241 338.493L683.96 416.66ZM660.626 248.54V155.207H567.293C564.194 155.222 561.21 154.009 559.012 151.821L485.627 78.3212L412.241 151.821C410.043 154.009 407.059 155.222 403.96 155.207H310.627V248.54C310.642 251.639 309.429 254.623 307.241 256.821L233.741 330.207L307.241 403.592C309.429 405.79 310.642 408.774 310.627 411.873V505.206H403.96C407.059 505.191 410.043 506.404 412.241 508.592L485.627 582.092L559.012 508.592C561.21 506.404 564.194 505.191 567.293 505.206H660.626V411.873C660.611 408.774 661.824 405.79 664.012 403.592L737.512 330.207L664.012 256.821C661.824 254.623 660.611 251.639 660.626 248.54V248.54ZM485.626 505.207C439.214 505.207 394.7 486.769 361.881 453.952C329.064 421.135 310.626 376.619 310.626 330.207C310.626 283.795 329.064 239.28 361.881 206.461C394.698 173.644 439.214 155.207 485.626 155.207C532.038 155.207 576.553 173.644 609.372 206.461C642.189 239.279 660.626 283.795 660.626 330.207C660.626 376.619 642.189 421.133 609.372 453.952C576.554 486.769 532.038 505.207 485.626 505.207Z" fill="#38BDF8"/>
</svg>
