<svg xmlns="http://www.w3.org/2000/svg" enable-background="new 0 0 512 512" viewBox="0 0 512 512"><path fill="#8c8c8c" d="M336.955,51.595v107.408C193.399,241.07,352.29,150.24,256,205.27v0.053l-80.955-46.32V51.595L256,97.915v-0.053L336.955,51.595z"/><path fill="#8c8c8c" d="M288.191,186.891c0.903-0.531,0.637-0.372,0.637-0.372C288.616,186.625,288.403,186.731,288.191,186.891z"/><polygon fill="#fccd43" points="336.955 51.595 336.955 83.414 256 129.681 175.045 83.414 175.045 51.595 256 97.915 256 97.862"/><polygon fill="#f2f2f2" points="336.941 51.575 256 97.887 175.059 51.575 256 5.311"/><polygon fill="#f76959" points="295.476 151.45 295.476 182.706 274.321 194.795 274.321 163.539"/><path fill="#fccd43" d="M213.504 439.529c-3.293 3.293-5.79 7.118-7.543 11.261-1.753 4.143-2.656 8.659-2.656 13.28v42.602H96.853v-38.565c0-10.836-5.046-21.035-13.705-27.622-7.377-7.252-28.207-14.799-28.207-38.618v-96.253c0-4.25 3.4-7.65 7.649-7.65 9.296 0 17.689 4.302 23.107 11.049v-73.783c0-9.509 7.702-17.264 17.264-17.264 9.639 0 17.211 7.838 17.211 17.264v-26.295c0-9.509 7.702-17.264 17.264-17.264 9.279 0 17.211 7.507 17.211 17.264v20.77c0-9.509 7.702-17.211 17.264-17.211 9.517 0 17.211 7.695 17.211 17.211v32.987c0-9.455 7.702-17.211 17.264-17.211 9.721 0 17.211 7.862 17.211 17.211C220.41 411.323 231.087 421.787 213.504 439.529zM457.059 305.614v96.253c0 10.89-5.046 21.088-13.705 27.622l-14.502 10.996c-8.659 6.587-13.705 16.786-13.705 27.622v38.565H308.695V464.07c0-9.621-3.984-18.327-10.199-24.541-6.427-6.48-10.093-15.299-10.093-24.489V262.693c0-9.349 7.49-17.211 17.211-17.211 9.562 0 17.264 7.755 17.264 17.211v-32.987c0-9.515 7.691-17.211 17.211-17.211 9.562 0 17.264 7.702 17.264 17.211v-20.77c0-9.754 7.928-17.264 17.211-17.264 9.562 0 17.264 7.755 17.264 17.264v26.295c0-9.411 7.556-17.264 17.211-17.264 9.562 0 17.264 7.755 17.264 17.264v73.783c5.418-6.746 13.811-11.049 23.107-11.049C453.659 297.965 457.059 301.365 457.059 305.614z"/><path d="M339.568 163.616c1.652-.947 2.674-2.705 2.674-4.612V51.652c0-.027.01-.051.01-.078 0-1.906-1.022-3.668-2.677-4.612L258.635.7c-1.634-.934-3.636-.934-5.27 0l-80.94 46.262c-1.709.974-2.677 3.012-2.677 4.612 0 .027.01.051.01.078v107.353c0 1.906 1.019 3.665 2.674 4.612l80.925 46.296c1.632.933 3.653.94 5.304-.016.012-.007.021-.018.033-.026L339.568 163.616zM180.382 60.74l70.301 40.226v19.558l-70.301-40.18V60.74zM331.618 60.758v19.587l-70.306 40.182v-19.558C357.66 45.864 324.426 64.872 331.618 60.758zM279.632 185.642v-19.02l10.533-6.017v19.017L279.632 185.642zM300.789 173.552v-22.101c0-1.893-1.009-3.644-2.646-4.594-1.639-.954-3.657-.962-5.302-.018l-21.157 12.087c-1.655.944-2.677 2.705-2.677 4.612v28.188l-7.696 4.4v-63.363l70.306-40.182v63.342L300.789 173.552zM256 11.431l70.241 40.146c-7.182 4.109 26.018-14.886-70.243 40.189l-70.24-40.189L256 11.431zM180.382 155.923V92.581l70.301 40.18v63.381L180.382 155.923zM206.376 240.17c-4.391 0-8.46 1.312-11.929 3.492V229.72c0-12.434-10.118-22.553-22.553-22.553-4.39 0-8.458 1.312-11.926 3.491v-1.735c0-12.434-10.118-22.55-22.553-22.55-12.434 0-22.553 10.116-22.553 22.55v7.243c-3.468-2.178-7.536-3.49-11.926-3.49-12.434 0-22.553 10.116-22.553 22.55v62.294c-5.231-3.083-11.303-4.884-17.801-4.884-7.154 0-12.974 5.82-12.974 12.974v96.275c0 27.07 23.621 36.111 30.349 42.851 7.252 5.509 11.584 14.247 11.584 23.38v38.572c0 2.934 2.378 5.312 5.312 5.312h106.45c2.934 0 5.312-2.378 5.312-5.312v-42.641c0-8.026 3.238-15.361 8.629-20.753 7.423-7.467 11.68-17.762 11.68-28.243V262.72C228.926 250.286 218.811 240.17 206.376 240.17zM218.303 415.051c0 7.698-3.131 15.262-8.578 20.742-7.425 7.425-11.732 17.492-11.732 28.254v37.329h-95.826v-33.26c0-12.434-5.901-24.337-15.788-31.843-7.813-7.545-26.145-13.816-26.145-34.388v-96.275c0-1.297 1.053-2.35 2.35-2.35 13.57 0 24.612 11.06 24.612 24.654V348.9c0 18.047 9.659 35.036 25.209 44.337 2.513 1.502 5.776.69 7.286-1.834 1.504-2.516.685-5.779-1.834-7.286-12.359-7.392-20.037-20.887-20.037-35.218v-20.986c0-7.765-2.549-14.928-6.811-20.762v-71.926c0-6.575 5.351-11.926 11.929-11.926 6.575 0 11.926 5.351 11.926 11.926v98.389c0 2.934 2.378 5.312 5.312 5.312s5.312-2.378 5.312-5.312v-98.389-26.303c0-6.575 5.351-11.926 11.929-11.926 6.578 0 11.929 5.351 11.929 11.926v20.797 103.895c0 2.934 2.378 5.312 5.312 5.312 2.934 0 5.312-2.378 5.312-5.312V229.72c0-6.578 5.351-11.929 11.926-11.929 6.578 0 11.929 5.351 11.929 11.929v103.895c0 2.951 2.4 5.315 5.317 5.315 2.934 0 5.312-2.378 5.312-5.312V262.72c0-6.575 5.348-11.926 11.923-11.926 6.575 0 11.926 5.351 11.926 11.926V415.051zM449.416 292.637c-6.498 0-12.57 1.801-17.801 4.884v-62.294c0-12.434-10.118-22.55-22.553-22.55-4.39 0-8.458 1.312-11.926 3.49v-7.243c0-12.434-10.118-22.55-22.553-22.55s-22.553 10.116-22.553 22.55v1.735c-3.468-2.179-7.536-3.491-11.926-3.491-12.434 0-22.553 10.118-22.553 22.553v13.943c-3.469-2.18-7.538-3.492-11.929-3.492-12.434 0-22.55 10.116-22.55 22.55v152.331c0 10.481 4.256 20.776 11.69 28.254 5.378 5.378 8.619 12.73 8.619 20.742v42.641c0 2.934 2.378 5.312 5.312 5.312h106.45c2.934 0 5.312-2.378 5.312-5.312v-38.572c0-31.529 41.933-27.575 41.933-66.231v-96.275C462.389 298.457 456.569 292.637 449.416 292.637zM451.765 401.885c0 31.77-41.933 27.275-41.933 66.231v33.26h-95.826v-37.329c0-10.84-4.38-20.902-11.721-28.243-5.457-5.491-8.588-13.054-8.588-20.753V262.72c0-6.575 5.351-11.926 11.926-11.926 6.575 0 11.923 5.351 11.923 11.926v70.897c0 2.934 2.378 5.312 5.312 5.312 2.916 0 5.317-2.363 5.317-5.315V229.72c0-6.578 5.351-11.929 11.929-11.929 6.575 0 11.926 5.351 11.926 11.929v103.895c0 2.934 2.378 5.312 5.312 5.312 2.934 0 5.312-2.378 5.312-5.312V229.72v-20.797c0-6.575 5.351-11.926 11.929-11.926s11.929 5.351 11.929 11.926v26.303 98.389c0 2.934 2.378 5.312 5.312 5.312s5.312-2.378 5.312-5.312v-98.389c0-6.575 5.351-11.926 11.926-11.926 6.578 0 11.929 5.351 11.929 11.926v71.926c-4.262 5.833-6.811 12.997-6.811 20.762V348.9c0 14.33-7.677 27.826-20.037 35.218-2.519 1.507-3.338 4.77-1.834 7.286 1.51 2.524 4.775 3.338 7.286 1.834 15.549-9.301 25.209-26.29 25.209-44.337v-20.986c0-13.594 11.042-24.654 24.612-24.654 1.297 0 2.35 1.053 2.35 2.35V401.885z"/></svg>