<svg id="visual" viewBox="0 0 900 600" width="900" height="600" xmlns="http://www.w3.org/2000/svg" xmlns:xlink="http://www.w3.org/1999/xlink" version="1.1"><path d="M0 372L21.5 367.2C43 362.3 86 352.7 128.8 352C171.7 351.3 214.3 359.7 257.2 374.3C300 389 343 410 385.8 432.5C428.7 455 471.3 479 514.2 463.2C557 447.3 600 391.7 642.8 376.8C685.7 362 728.3 388 771.2 389.8C814 391.7 857 369.3 878.5 358.2L900 347L900 601L878.5 601C857 601 814 601 771.2 601C728.3 601 685.7 601 642.8 601C600 601 557 601 514.2 601C471.3 601 428.7 601 385.8 601C343 601 300 601 257.2 601C214.3 601 171.7 601 128.8 601C86 601 43 601 21.5 601L0 601Z" fill="#009000" stroke-linecap="round" stroke-linejoin="miter"></path></svg>