<svg xmlns="http://www.w3.org/2000/svg" width="655.359" height="655.359" fill-rule="evenodd" clip-rule="evenodd" image-rendering="optimizeQuality" shape-rendering="geometricPrecision" text-rendering="geometricPrecision" viewBox="0 0 6.827 6.827"><path fill="#1a1a1a" fill-rule="nonzero" d="M1.744.855h3.754a.08.08 0 0 1 .08.08v4.662a.08.08 0 0 1-.08.08h-.415a.08.08 0 0 1-.08-.08V1.31H1.329a.08.08 0 0 1-.042-.148l.41-.292a.08.08 0 0 1 .047-.015zm3.674.16h-3.65l-.19.135h3.505a.08.08 0 0 1 .08.08v4.287h.255V1.015z"/><path fill="#1a1a1a" fill-rule="nonzero" d="M1.329 1.15h3.754a.08.08 0 0 1 .08.08v4.662a.08.08 0 0 1-.08.08H1.329a.08.08 0 0 1-.08-.08V1.23a.08.08 0 0 1 .08-.08zm3.674.16H1.409v4.502h3.594V1.31z"/><path fill="#1a1a1a" fill-rule="nonzero" d="M3.206 5.019c.023 0 .072-.077.117-.148.047-.073.09-.142.145-.17a.68.68 0 0 0 .299-.317.08.08 0 0 1 .034-.038l.098-.066v-.446a.08.08 0 0 1 .08-.08h.025a.193.193 0 0 0 .137-.33.193.193 0 0 0-.137-.057h-.009c-.048.002-.09-.017-.095-.072v-.453l-.104-.07a.08.08 0 0 1-.032-.04.682.682 0 0 0-.296-.311c-.054-.028-.098-.097-.145-.17-.045-.071-.094-.148-.117-.148-.014 0-.058.07-.1.136-.048.076-.094.15-.153.177a.665.665 0 0 0-.309.321v.001a.08.08 0 0 1-.033.038l-.099.066v.446a.08.08 0 0 1-.08.08h-.024a.193.193 0 0 0-.137.33.193.193 0 0 0 .137.057l.017-.001a.08.08 0 0 1 .087.08v.446l.104.07a.08.08 0 0 1 .032.04.664.664 0 0 0 .305.315c.059.028.105.102.153.178.042.066.086.136.1.136zm.252-.063c-.068.107-.142.223-.252.223-.102 0-.17-.108-.235-.211a.484.484 0 0 0-.087-.118.781.781 0 0 1-.375-.38l-.116-.078a.08.08 0 0 1-.04-.07V3.91a.353.353 0 0 1-.196-.6.353.353 0 0 1 .195-.099v-.41a.08.08 0 0 1 .036-.068l.12-.081a.823.823 0 0 1 .376-.38.484.484 0 0 0 .087-.118c.065-.103.133-.211.235-.211.11 0 .184.116.252.223a.492.492 0 0 0 .082.112c.086.043.159.1.218.164.063.066.111.14.145.21l.115.078a.08.08 0 0 1 .041.07v.411a.353.353 0 0 1 .195.6.353.353 0 0 1-.195.1v.41a.08.08 0 0 1-.035.068l-.121.081a.846.846 0 0 1-.145.21.785.785 0 0 1-.218.164c-.016.008-.048.059-.082.112z"/><path fill="#1a1a1a" fill-rule="nonzero" d="M2.172 1.541H4.24a.08.08 0 0 1 .08.08.32.32 0 0 0 .32.32.08.08 0 0 1 .08.08v3.08a.08.08 0 0 1-.08.08.32.32 0 0 0-.32.32.08.08 0 0 1-.08.08H2.172a.08.08 0 0 1-.08-.08.32.32 0 0 0-.32-.32.08.08 0 0 1-.08-.08V2.02a.08.08 0 0 1 .08-.08.32.32 0 0 0 .32-.32.08.08 0 0 1 .08-.08zm1.995.16H2.245a.48.48 0 0 1-.394.394v2.932a.48.48 0 0 1 .394.394h1.922a.48.48 0 0 1 .393-.394V2.095a.48.48 0 0 1-.393-.394z"/><path fill="#fff59d" d="M1.997 5.274a.32.32 0 0 0-.226-.094.08.08 0 0 1-.08-.08V2.022a.08.08 0 0 1 .08-.08.32.32 0 0 0 .32-.32.08.08 0 0 1 .08-.08H4.24a.08.08 0 0 1 .08.08.32.32 0 0 0 .32.32.08.08 0 0 1 .08.08V5.1a.08.08 0 0 1-.08.08.32.32 0 0 0-.32.32.08.08 0 0 1-.08.08H2.172a.08.08 0 0 1-.08-.08.32.32 0 0 0-.095-.226zM5.003 1.31H1.409v4.502h3.594V1.31z"/><path fill="#fff59d" d="M2.616 4.35a.08.08 0 0 1 .032.04.664.664 0 0 0 .305.315c.059.028.105.102.153.178.042.066.086.136.1.136.023 0 .072-.077.117-.148.047-.073.09-.142.145-.17a.68.68 0 0 0 .299-.317.08.08 0 0 1 .034-.038l.098-.066v-.446a.08.08 0 0 1 .08-.08h.025a.193.193 0 0 0 .137-.33.193.193 0 0 0-.137-.057h-.009c-.048.002-.09-.017-.095-.072v-.453l-.104-.07a.08.08 0 0 1-.032-.04.682.682 0 0 0-.296-.311c-.054-.028-.098-.097-.145-.17-.045-.071-.094-.148-.117-.148-.014 0-.058.07-.1.136-.048.076-.094.15-.153.177a.665.665 0 0 0-.309.321v.001a.08.08 0 0 1-.033.038l-.099.066v.446a.08.08 0 0 1-.08.08h-.024a.193.193 0 0 0-.137.33.193.193 0 0 0 .137.057l.017-.001a.08.08 0 0 1 .087.08v.446l.104.07z"/><path fill="#80cbc4" d="M2.657 4.685a.823.823 0 0 1-.148-.215l-.116-.078a.08.08 0 0 1-.04-.07V3.91a.353.353 0 0 1-.196-.6.353.353 0 0 1 .195-.099v-.41a.08.08 0 0 1 .036-.068l.12-.081a.823.823 0 0 1 .376-.38.484.484 0 0 0 .087-.118c.065-.103.133-.211.235-.211.11 0 .184.116.252.223a.492.492 0 0 0 .082.112c.086.043.159.1.218.164.063.066.111.14.145.21l.115.078a.08.08 0 0 1 .041.07v.411a.353.353 0 0 1 .195.6.353.353 0 0 1-.195.1v.41a.08.08 0 0 1-.035.068l-.121.081a.846.846 0 0 1-.145.21.785.785 0 0 1-.218.164c-.016.008-.048.059-.082.112-.068.107-.142.223-.252.223-.102 0-.17-.108-.235-.211a.484.484 0 0 0-.087-.118.781.781 0 0 1-.227-.165zm-.806.342a.48.48 0 0 1 .394.394h1.922a.48.48 0 0 1 .393-.394V2.095a.48.48 0 0 1-.393-.394H2.245a.48.48 0 0 1-.394.394v2.932z"/><path fill="#e0e0e0" d="M5.163 1.23v4.287h.255V1.015h-3.65l-.19.135h3.505a.08.08 0 0 1 .08.08z"/><path fill="none" d="M0 0h6.827v6.827H0z"/></svg>