<svg width="656" height="656" viewBox="0 0 656 656" fill="none" xmlns="http://www.w3.org/2000/svg">
<g clip-path="url(#clip0_0_1)">
<path d="M142.745 489.959C142.745 492.111 143.599 494.174 145.12 495.695C146.642 497.216 148.705 498.071 150.856 498.071C153.008 498.071 155.071 497.216 156.592 495.695C158.113 494.174 158.968 492.111 158.968 489.959V109.051H462.313C464.451 109.051 466.502 108.201 468.014 106.689C469.527 105.177 470.376 103.126 470.376 100.987C470.376 98.8483 469.527 96.7973 468.014 95.2851C466.502 93.7729 464.451 92.9233 462.313 92.9233H150.904C149.837 92.9106 148.778 93.1098 147.789 93.5094C146.8 93.9089 145.899 94.5009 145.14 95.2509C144.381 96.0009 143.779 96.8942 143.367 97.8788C142.956 98.8634 142.745 99.9199 142.745 100.987V489.959V489.959Z" fill="black"/>
<path d="M454.249 489.959C454.249 492.111 455.104 494.174 456.625 495.695C458.146 497.216 460.209 498.071 462.361 498.071C464.512 498.071 466.575 497.216 468.096 495.695C469.618 494.174 470.472 492.111 470.472 489.959V109.051H472.392C475.984 109.025 479.545 109.712 482.87 111.072C486.194 112.432 489.216 114.438 491.76 116.973C494.305 119.508 496.321 122.523 497.692 125.843C499.064 129.163 499.764 132.721 499.751 136.313V525.286C499.751 527.424 500.6 529.475 502.113 530.987C503.625 532.5 505.676 533.349 507.814 533.349C509.953 533.349 512.004 532.5 513.516 530.987C515.028 529.475 515.878 527.424 515.878 525.286V136.313C515.891 130.612 514.777 124.964 512.601 119.694C510.425 114.424 507.229 109.635 503.198 105.604C499.166 101.572 494.378 98.3765 489.108 96.2004C483.838 94.0243 478.19 92.9107 472.488 92.9233H462.313C460.174 92.9233 458.123 93.7729 456.611 95.2851C455.099 96.7973 454.249 98.8483 454.249 100.987V489.959V489.959Z" fill="black"/>
<path d="M150.904 481.896H472.488C478.19 481.883 483.838 482.997 489.108 485.173C494.378 487.349 499.166 490.544 503.198 494.576C507.229 498.608 510.425 503.396 512.601 508.666C514.777 513.936 515.891 519.584 515.878 525.286C515.891 530.987 514.777 536.635 512.601 541.905C510.425 547.175 507.229 551.963 503.198 555.995C499.166 560.027 494.378 563.222 489.108 565.398C483.838 567.574 478.19 568.688 472.488 568.675H151V552.548C158.2 552.548 164.44 549.668 168.951 544.869C173.852 539.534 176.531 532.529 176.439 525.286C176.519 517.998 173.806 510.956 168.855 505.607C166.554 503.159 163.771 501.213 160.682 499.891C157.593 498.57 154.264 497.901 150.904 497.927V481.896ZM472.488 498.023H183.543C189.439 505.885 192.608 515.458 192.566 525.286C192.608 535.113 189.439 544.686 183.543 552.548H472.488C476.072 552.561 479.623 551.864 482.936 550.499C486.249 549.133 489.26 547.125 491.794 544.591C494.328 542.057 496.336 539.047 497.701 535.733C499.067 532.42 499.763 528.869 499.751 525.286C499.763 521.702 499.067 518.151 497.701 514.838C496.336 511.524 494.328 508.514 491.794 505.98C489.26 503.446 486.249 501.438 482.936 500.072C479.623 498.707 476.072 498.01 472.488 498.023V498.023ZM384.844 146.777H228.468C226.874 154.545 223.029 161.672 217.413 167.27C211.798 172.869 204.659 176.692 196.886 178.263V412.587C204.659 414.158 211.798 417.981 217.413 423.58C223.029 429.179 226.874 436.306 228.468 444.074H384.941C386.535 436.306 390.38 429.179 395.996 423.58C401.611 417.981 408.75 414.158 416.523 412.587V178.359C408.737 176.781 401.589 172.944 395.972 167.327C390.355 161.71 386.518 154.562 384.941 146.777H384.844ZM221.077 130.649H392.14C396.652 130.649 400.204 134.201 400.204 138.713C400.191 141.906 400.811 145.07 402.027 148.022C403.243 150.975 405.031 153.657 407.289 155.915C409.547 158.172 412.229 159.961 415.181 161.177C418.134 162.393 421.298 163.012 424.491 163C428.906 163 432.554 166.552 432.554 171.063V419.883C432.554 422.021 431.705 424.072 430.192 425.585C428.68 427.097 426.629 427.946 424.491 427.946C421.298 427.934 418.134 428.553 415.181 429.769C412.229 430.985 409.547 432.774 407.289 435.032C405.031 437.289 403.243 439.972 402.027 442.924C400.811 445.876 400.191 449.04 400.204 452.233C400.204 454.372 399.354 456.423 397.842 457.935C396.33 459.447 394.279 460.297 392.14 460.297H221.077C218.938 460.297 216.887 459.447 215.375 457.935C213.863 456.423 213.013 454.372 213.013 452.233C213.026 449.04 212.406 445.876 211.19 442.924C209.974 439.972 208.186 437.289 205.928 435.032C203.67 432.774 200.988 430.985 198.036 429.769C195.083 428.553 191.919 427.934 188.726 427.946C186.588 427.946 184.537 427.097 183.025 425.585C181.512 424.072 180.663 422.021 180.663 419.883V171.063C180.663 166.552 184.311 163 188.726 163C191.919 163.012 195.083 162.393 198.036 161.177C200.988 159.961 203.67 158.172 205.928 155.915C208.186 153.657 209.974 150.975 211.19 148.022C212.406 145.07 213.026 141.906 213.013 138.713C213.013 134.201 216.661 130.649 221.077 130.649V130.649Z" fill="black"/>
<path d="M306.609 221.461C302.6 224.736 298.293 227.629 293.745 230.1C290.097 232.308 286.546 234.516 283.57 237.108C282.051 238.497 280.059 239.252 278.002 239.22C274.162 239.508 270.322 240.468 266.483 241.524C261.683 242.772 256.883 244.02 251.123 244.404C250.647 249.571 249.683 254.681 248.243 259.667C247.283 263.699 246.228 267.731 246.036 271.762C246.708 272.722 244.308 276.466 243.444 277.33C241.02 280.333 238.868 283.546 237.012 286.93C234.516 291.249 231.924 295.569 228.276 299.793C231.924 304.113 234.516 308.432 236.916 312.656C238.904 316.275 241.252 319.684 243.924 322.832C244.788 322.352 246.036 327.823 246.036 328.399C246.324 332.239 247.283 336.079 248.339 340.015C249.491 344.815 250.835 349.614 251.219 355.278C256.787 355.662 261.683 356.91 266.387 358.158C270.514 359.118 274.546 360.27 278.578 360.462C279.538 359.79 283.282 362.094 284.05 362.958C286.93 365.454 290.385 367.469 293.745 369.485C298.065 371.981 302.385 374.477 306.609 378.125C310.928 374.477 315.248 371.981 319.472 369.485C323.086 367.528 326.495 365.212 329.647 362.574C329.071 361.614 334.639 360.462 335.215 360.462C339.055 360.174 342.895 359.118 346.734 358.158C351.534 356.91 356.334 355.662 362.094 355.278C362.478 349.614 363.726 344.719 364.974 340.015C365.934 335.983 366.989 331.951 367.277 327.919C366.509 326.96 368.909 323.12 369.773 322.352C372.23 319.352 374.415 316.14 376.301 312.752C379.181 307.76 382.061 302.865 386.668 297.969C385.748 297.089 384.913 296.125 384.173 295.089C379.421 288.843 374.458 282.759 369.293 276.85C367.905 275.332 367.149 273.34 367.181 271.282C366.893 267.443 365.934 263.603 364.974 259.667C363.726 254.867 362.478 250.067 362.094 244.404C356.334 244.02 351.534 242.772 346.734 241.524C342.703 240.468 338.671 239.412 334.639 239.22C332.562 239.125 330.601 238.231 329.167 236.724C326.287 234.228 322.928 232.212 319.472 230.196C314.918 227.697 310.611 224.772 306.609 221.461V221.461ZM285.49 216.277C290.577 213.397 295.665 210.325 299.985 205.238C300.744 204.144 301.762 203.256 302.948 202.651C304.134 202.047 305.451 201.745 306.782 201.774C308.113 201.802 309.416 202.16 310.575 202.815C311.734 203.469 312.713 204.401 313.424 205.526C317.517 209.888 322.321 213.524 327.631 216.277C331.324 218.378 334.854 220.752 338.191 223.381C342.799 223.861 346.83 224.917 350.862 225.973C356.43 227.413 362.094 228.852 368.813 228.372C370.029 228.162 371.277 228.234 372.461 228.582C373.645 228.93 374.733 229.545 375.641 230.379C376.55 231.214 377.255 232.246 377.703 233.396C378.15 234.546 378.327 235.783 378.221 237.012C376.301 236.916 380.141 254.195 380.525 255.635C381.485 259.667 382.637 263.603 383.117 268.114C386.38 271.954 392.524 279.442 397.132 285.586C399.916 289.329 402.22 292.977 403.564 295.857C404.489 297.509 404.804 299.433 404.453 301.294C404.102 303.154 403.107 304.832 401.644 306.033C400.012 305.169 391.084 319.184 390.124 320.816C388.012 324.368 385.9 327.919 383.117 331.471C382.637 335.983 381.581 340.015 380.525 344.047C378.689 349.846 377.877 355.92 378.125 361.998C378.338 363.222 378.265 364.479 377.912 365.671C377.559 366.863 376.935 367.957 376.09 368.868C375.244 369.778 374.199 370.481 373.037 370.921C371.875 371.362 370.626 371.527 369.389 371.405C369.581 369.581 352.302 373.325 350.862 373.709C346.734 374.765 342.799 375.821 338.287 376.301C334.919 378.934 331.357 381.308 327.631 383.405C321.797 386.436 316.586 390.539 312.272 395.5C311.471 396.286 310.515 396.896 309.464 397.29C308.414 397.685 307.292 397.857 306.172 397.793C305.052 397.73 303.957 397.434 302.958 396.923C301.958 396.413 301.077 395.699 300.369 394.828C296.221 390.12 291.242 386.215 285.682 383.309C281.926 381.247 278.332 378.905 274.93 376.301C270.418 375.821 266.483 374.765 262.451 373.709C256.621 371.863 250.513 371.05 244.404 371.309C243.188 371.52 241.94 371.448 240.756 371.1C239.572 370.752 238.484 370.137 237.576 369.303C236.667 368.468 235.962 367.436 235.514 366.286C235.067 365.136 234.89 363.899 234.996 362.67C235.381 356.373 234.6 350.06 232.692 344.047C231.732 340.015 230.58 335.983 230.1 331.567C227.221 327.919 225.205 324.368 223.093 320.816C220.308 315.417 216.605 310.545 212.149 306.417C211.12 305.71 210.269 304.775 209.663 303.684C209.056 302.592 208.712 301.375 208.656 300.128C208.6 298.881 208.835 297.638 209.341 296.497C209.847 295.356 210.611 294.349 211.573 293.553C217.045 289.233 220.117 283.954 223.093 278.866C225.205 275.218 227.317 271.666 230.1 268.21C230.58 263.699 231.636 259.667 232.692 255.635C235.092 246.324 230.484 231.54 241.716 228.756C247.763 227.413 257.555 227.221 262.355 225.877C266.483 224.917 270.418 223.861 274.93 223.381C278.482 220.501 282.034 218.389 285.49 216.277V216.277ZM337.807 286.93L319.568 268.69H293.649L275.41 286.93V312.752L293.649 330.991H319.568L337.807 312.752V286.93ZM350.67 274.45C353.07 278.29 353.934 279.73 353.934 283.57V316.112C353.937 317.183 353.726 318.245 353.314 319.233C352.902 320.222 352.297 321.119 351.534 321.872L328.591 344.719C327.839 345.481 326.942 346.086 325.953 346.498C324.964 346.91 323.903 347.121 322.832 347.119H290.385C290.385 347.119 285.01 345.199 284.626 344.815L261.683 321.776C260.92 321.023 260.315 320.126 259.903 319.137C259.491 318.149 259.28 317.087 259.283 316.016V283.57C259.283 283.57 261.203 278.194 261.683 277.81L284.626 254.867C285.378 254.105 286.275 253.5 287.264 253.088C288.253 252.675 289.314 252.465 290.385 252.467H322.832C328.783 252.467 345.679 270.034 350.67 274.546V274.45ZM472.488 533.349C474.627 533.349 476.678 532.5 478.19 530.987C479.702 529.475 480.552 527.424 480.552 525.286C480.552 523.147 479.702 521.096 478.19 519.584C476.678 518.072 474.627 517.222 472.488 517.222H278.866C276.727 517.222 274.676 518.072 273.164 519.584C271.652 521.096 270.802 523.147 270.802 525.286C270.802 527.424 271.652 529.475 273.164 530.987C274.676 532.5 276.727 533.349 278.866 533.349H472.488Z" fill="black"/>
<path fill-rule="evenodd" clip-rule="evenodd" d="M319.568 330.991L337.807 312.752V286.93L319.568 268.69H293.745L275.41 286.93V312.752L293.745 330.991H319.568Z" fill="#F3FFFF"/>
<path fill-rule="evenodd" clip-rule="evenodd" d="M322.832 347.119H290.385C290.385 347.119 285.009 345.199 284.626 344.815L261.683 321.776C260.92 321.023 260.315 320.126 259.903 319.137C259.491 318.149 259.28 317.087 259.283 316.016V283.57C259.283 283.57 261.203 278.194 261.683 277.81L284.626 254.867C285.378 254.105 286.275 253.5 287.264 253.088C288.253 252.675 289.314 252.465 290.385 252.467H322.832C328.783 252.467 345.678 270.034 350.67 274.546C353.07 278.386 353.934 279.73 353.934 283.57V316.112C353.937 317.183 353.726 318.245 353.314 319.233C352.902 320.222 352.297 321.119 351.534 321.872L328.591 344.719C327.839 345.481 326.942 346.086 325.953 346.498C324.964 346.91 323.903 347.121 322.832 347.119V347.119ZM306.512 221.365C302.542 224.702 298.268 227.659 293.745 230.196C290.097 232.308 286.545 234.516 283.57 237.108C282.051 238.497 280.059 239.252 278.002 239.22C274.162 239.508 270.322 240.468 266.482 241.524C261.683 242.772 256.883 244.02 251.123 244.404C250.835 250.067 249.491 254.963 248.243 259.667C247.283 263.699 246.227 267.731 246.035 271.762C246.707 272.722 244.308 276.466 243.444 277.33C241.02 280.333 238.867 283.546 237.012 286.93C234.512 291.483 231.587 295.79 228.276 299.793C231.924 304.113 234.516 308.432 236.916 312.656C238.904 316.275 241.252 319.684 243.924 322.832C244.788 322.352 246.035 327.823 246.035 328.399C246.323 332.239 247.283 336.079 248.339 340.015C249.491 344.815 250.835 349.614 251.219 355.278C256.787 355.662 261.683 356.91 266.386 358.158C270.514 359.118 274.546 360.27 278.578 360.462C279.538 359.79 283.282 362.094 284.05 362.958C286.929 365.454 290.385 367.469 293.745 369.485C298.065 371.981 302.385 374.477 306.608 378.125C310.928 374.477 315.248 371.981 319.472 369.485C323.086 367.528 326.495 365.212 329.647 362.574C329.071 361.614 334.639 360.462 335.215 360.462C339.055 360.174 342.895 359.118 346.734 358.158C351.534 356.91 356.334 355.662 362.094 355.278C362.478 349.614 363.726 344.719 364.973 340.015C365.933 335.983 366.989 331.951 367.277 327.919C366.509 326.96 368.909 323.12 369.773 322.352C372.23 319.352 374.414 316.14 376.301 312.752C379.181 307.76 382.061 302.865 386.668 297.969C385.748 297.089 384.913 296.125 384.172 295.089C379.421 288.843 374.458 282.76 369.293 276.85C367.905 275.332 367.149 273.34 367.181 271.282C366.893 267.443 365.933 263.603 364.973 259.667C363.726 254.867 362.478 250.067 362.094 244.404C356.334 244.02 351.534 242.772 346.734 241.524C342.79 240.351 338.738 239.579 334.639 239.22C332.561 239.125 330.601 238.231 329.167 236.724C326.287 234.228 322.928 232.212 319.472 230.196C314.918 227.697 310.611 224.772 306.608 221.461L306.512 221.365Z" fill="#9DE9A5"/>
<path fill-rule="evenodd" clip-rule="evenodd" d="M312.176 395.5C311.377 396.27 310.426 396.867 309.385 397.252C308.344 397.638 307.235 397.804 306.126 397.741C305.018 397.678 303.934 397.387 302.943 396.886C301.953 396.384 301.076 395.684 300.369 394.828C295.953 389.452 290.769 386.381 285.682 383.309C281.926 381.247 278.332 378.905 274.93 376.301C270.419 375.821 266.483 374.765 262.451 373.709C256.621 371.863 250.513 371.05 244.404 371.309C243.188 371.52 241.94 371.448 240.756 371.1C239.573 370.752 238.484 370.137 237.576 369.303C236.667 368.468 235.962 367.436 235.515 366.286C235.067 365.136 234.89 363.899 234.996 362.67C235.764 355.662 234.228 349.806 232.692 344.047C231.732 340.015 230.581 335.983 230.101 331.567C227.497 328.165 225.154 324.571 223.093 320.816C220.213 315.824 217.141 310.832 212.149 306.417C211.12 305.71 210.269 304.775 209.663 303.684C209.057 302.592 208.712 301.375 208.656 300.128C208.6 298.881 208.835 297.638 209.341 296.497C209.847 295.357 210.611 294.349 211.573 293.553C216.281 289.405 220.186 284.427 223.093 278.866C225.158 275.143 227.501 271.582 230.101 268.21C230.648 263.96 231.514 259.756 232.692 255.635C235.092 246.324 230.485 231.54 241.716 228.852C247.764 227.413 257.555 227.221 262.355 225.973C266.483 224.917 270.419 223.861 274.93 223.381C278.482 220.501 282.034 218.389 285.49 216.277C290.921 213.459 295.824 209.724 299.985 205.238C300.744 204.144 301.762 203.256 302.948 202.651C304.134 202.047 305.451 201.745 306.782 201.774C308.113 201.802 309.416 202.16 310.575 202.815C311.734 203.469 312.713 204.401 313.424 205.526C317.517 209.888 322.321 213.524 327.632 216.277C331.324 218.378 334.854 220.752 338.191 223.381C342.799 223.861 346.831 224.917 350.862 225.973C356.43 227.413 362.094 228.852 368.814 228.373C370.029 228.162 371.277 228.234 372.461 228.582C373.645 228.93 374.733 229.545 375.642 230.379C376.55 231.214 377.256 232.246 377.703 233.396C378.15 234.546 378.327 235.783 378.221 237.012C376.301 236.916 380.141 254.195 380.525 255.635C381.485 259.667 382.637 263.603 383.117 268.115C386.381 271.954 392.524 279.442 397.132 285.586C399.916 289.329 402.22 292.977 403.564 295.857C404.489 297.509 404.804 299.433 404.453 301.294C404.102 303.154 403.108 304.832 401.644 306.033C400.012 305.169 391.084 319.184 390.124 320.816C388.013 324.368 385.901 327.92 383.117 331.471C382.57 335.722 381.703 339.926 380.525 344.047C378.689 349.846 377.877 355.92 378.125 361.998C378.338 363.222 378.265 364.479 377.912 365.671C377.559 366.863 376.936 367.957 376.09 368.868C375.244 369.778 374.199 370.481 373.037 370.921C371.875 371.362 370.626 371.527 369.39 371.405C369.582 369.581 352.302 373.325 350.862 373.709C346.742 374.888 342.538 375.754 338.287 376.301C334.919 378.934 331.357 381.308 327.632 383.405C321.797 386.436 316.587 390.539 312.272 395.5H312.176ZM384.845 146.873H228.469C226.857 154.623 223.005 161.729 217.391 167.31C211.776 172.89 204.646 176.699 196.886 178.263V412.587C204.659 414.158 211.798 417.981 217.414 423.58C223.029 429.179 226.874 436.306 228.469 444.074H384.941C386.535 436.306 390.38 429.179 395.996 423.58C401.612 417.981 408.75 414.158 416.523 412.587V178.359C408.738 176.781 401.59 172.944 395.973 167.327C390.356 161.71 386.518 154.562 384.941 146.777L384.845 146.873Z" fill="white"/>
<path fill-rule="evenodd" clip-rule="evenodd" d="M392.14 460.297H221.077C218.938 460.297 216.887 459.447 215.375 457.935C213.863 456.423 213.013 454.372 213.013 452.233C213.026 449.04 212.407 445.876 211.19 442.924C209.974 439.972 208.186 437.289 205.928 435.032C203.67 432.774 200.988 430.985 198.036 429.769C195.083 428.553 191.92 427.934 188.727 427.946C186.588 427.946 184.537 427.097 183.025 425.585C181.513 424.072 180.663 422.021 180.663 419.883V171.063C180.663 166.552 184.311 163 188.727 163C191.92 163.012 195.083 162.393 198.036 161.177C200.988 159.961 203.67 158.172 205.928 155.915C208.186 153.657 209.974 150.975 211.19 148.022C212.407 145.07 213.026 141.906 213.013 138.713C213.013 134.201 216.661 130.649 221.077 130.649H392.14C396.652 130.649 400.204 134.201 400.204 138.713C400.191 141.906 400.811 145.07 402.027 148.022C403.243 150.975 405.031 153.657 407.289 155.915C409.547 158.172 412.229 159.961 415.182 161.177C418.134 162.393 421.298 163.012 424.491 163C428.906 163 432.554 166.552 432.554 171.063V419.883C432.554 422.021 431.705 424.072 430.193 425.585C428.68 427.097 426.629 427.946 424.491 427.946C421.298 427.934 418.134 428.553 415.182 429.769C412.229 430.985 409.547 432.774 407.289 435.032C405.031 437.289 403.243 439.972 402.027 442.924C400.811 445.876 400.191 449.04 400.204 452.233C400.204 454.372 399.354 456.423 397.842 457.935C396.33 459.447 394.279 460.297 392.14 460.297V460.297ZM158.872 481.8H454.249V109.051H158.968V481.896L158.872 481.8Z" fill="#38BDF8"/>
<path fill-rule="evenodd" clip-rule="evenodd" d="M462.313 498.023H183.543C189.44 505.885 192.608 515.458 192.567 525.286C192.608 535.113 189.44 544.686 183.543 552.548H472.488C476.072 552.561 479.623 551.864 482.936 550.499C486.25 549.133 489.26 547.126 491.794 544.591C494.328 542.057 496.336 539.047 497.702 535.733C499.067 532.42 499.764 528.869 499.751 525.286V523.942C499.406 516.947 496.382 510.353 491.306 505.527C486.23 500.702 479.492 498.014 472.488 498.023H462.313V498.023ZM270.707 525.286C270.707 520.774 274.354 517.222 278.866 517.222H472.488C474.627 517.222 476.678 518.071 478.19 519.584C479.702 521.096 480.552 523.147 480.552 525.286C480.552 527.424 479.702 529.475 478.19 530.987C476.678 532.5 474.627 533.349 472.488 533.349H278.866C277.799 533.362 276.74 533.163 275.751 532.763C274.761 532.364 273.861 531.772 273.102 531.022C272.343 530.272 271.741 529.378 271.329 528.394C270.918 527.409 270.707 526.353 270.707 525.286V525.286ZM470.377 109.051V481.8H472.488C482.42 481.801 492.048 485.225 499.751 491.495V136.313C499.764 132.729 499.067 129.179 497.702 125.865C496.336 122.552 494.328 119.541 491.794 117.007C489.26 114.473 486.25 112.466 482.936 111.1C479.623 109.734 476.072 109.038 472.488 109.051H470.377Z" fill="#F3FFFF"/>
</g>
<defs>
<clipPath id="clip0_0_1">
<rect width="655.359" height="655.359" fill="white"/>
</clipPath>
</defs>
</svg>
