<?xml version="1.0" encoding="UTF-8" standalone="no" ?>
<!DOCTYPE svg PUBLIC "-//W3C//DTD SVG 1.1//EN" "http://www.w3.org/Graphics/SVG/1.1/DTD/svg11.dtd">
<svg xmlns="http://www.w3.org/2000/svg" xmlns:xlink="http://www.w3.org/1999/xlink" version="1.1" width="1080" height="1080" viewBox="0 0 1080 1080" xml:space="preserve">
<desc>Created with Fabric.js 5.2.4</desc>
<defs>
</defs>
<rect x="0" y="0" width="100%" height="100%" fill="transparent"></rect>
<g transform="matrix(1 0 0 1 540 540)" id="765637e6-935a-4752-b418-cb26c69df367"  >
<rect style="stroke: none; stroke-width: 1; stroke-dasharray: none; stroke-linecap: butt; stroke-dashoffset: 0; stroke-linejoin: miter; stroke-miterlimit: 4; fill: rgb(255,255,255); fill-rule: nonzero; opacity: 1; visibility: hidden;" vector-effect="non-scaling-stroke"  x="-540" y="-540" rx="0" ry="0" width="1080" height="1080" />
</g>
<g transform="matrix(1 0 0 1 540 540)" id="0f586047-09d2-485a-bc75-5541bddd13be"  >
</g>
<g transform="matrix(146.71 0 0 146.71 437.33 412.83)"  >
<path style="stroke: none; stroke-width: 1; stroke-dasharray: none; stroke-linecap: butt; stroke-dashoffset: 0; stroke-linejoin: miter; stroke-miterlimit: 4; fill: rgb(0,0,0); fill-rule: nonzero; opacity: 1;" vector-effect="non-scaling-stroke"  transform=" translate(-2.65, -2.81)" d="M 2.001 1.587 C 2.034658972125023 1.5605723711069146 2.041559702743487 1.512336157215882 2.016660743497785 1.4775311604208152 C 1.9917617842520834 1.4427261636257485 1.9438816488175024 1.4336793385265092 1.908 1.4569999999999999 L 1.4809999999999999 1.7599999999999998 C 1.4580578971312146 1.776489063679187 1.4455144459358873 1.8038565935599014 1.448 1.8319999999999999 L 1.448 3.502 C 1.4480000013920147 3.54618277900216 1.4838172209978395 3.5819999974795342 1.528 3.5819999974795342 C 1.5721827790021603 3.5819999974795342 1.6079999986079851 3.54618277900216 1.6079999999999999 3.502 L 1.6079999999999999 1.866 L 2 1.586 z M 3.018 4.06 C 2.9997877796200814 4.0971145296159674 3.0128545561067464 4.141992432052806 3.0481438827657 4.163529300528491 C 3.0834332094246535 4.185066169004176 3.1293197408445783 4.176167123598565 3.154 4.143 C 3.1784858513493446 4.10926978413159 3.212671737550147 4.083804787267727 3.252 4.069999999999999 C 3.3092256261609996 4.047094979460755 3.3703622924313197 4.035546942498583 3.432 4.036 C 3.4913560817260954 4.035154587284521 3.5503540496524186 4.045326650720094 3.606 4.066 C 3.645533852074074 4.079461789838247 3.6805170744879496 4.103707587550834 3.707 4.136 C 3.7329573832420473 4.171898508739002 3.7831014912609984 4.179957383242047 3.819 4.154 C 3.8548985087390015 4.128042616757953 3.862957383242047 4.077898508739001 3.8369999999999997 4.042 C 3.792245968749489 3.985111088291235 3.7322500228394553 3.942108213766124 3.6639999999999997 3.9179999999999997 C 3.590242565328934 3.889897251525382 3.5119291263151826 3.875658444431972 3.4329999999999994 3.8759999999999994 C 3.350106377035326 3.875415775575214 3.2678980233440416 3.891042156855376 3.1909999999999994 3.9219999999999997 C 3.1203083277204486 3.948754542462688 3.0597976179991293 3.9970232010843185 3.018 4.06 z" stroke-linecap="round" />
</g>
<g transform="matrix(146.71 0 0 146.71 549.35 402.72)"  >
<path style="stroke: none; stroke-width: 1; stroke-dasharray: none; stroke-linecap: butt; stroke-dashoffset: 0; stroke-linejoin: miter; stroke-miterlimit: 4; fill: rgb(0,0,0); fill-rule: nonzero; opacity: 1;" vector-effect="non-scaling-stroke"  transform=" translate(-3.41, -2.74)" d="M 3.413 3.712 C 3.686 3.22 4.531 3.12 4.792 3.1020000000000003 L 4.792 1.608 C 3.484 1.73 3.493 2.329 3.493 2.331 C 3.493 2.437 3.3329999999999997 2.435 3.3329999999999997 2.331 C 3.3329999999999997 2.305 3.316 1.7269999999999999 2.0349999999999997 1.608 L 2.0349999999999997 3.1 C 2.295 3.119 3.1419999999999995 3.216 3.412 3.7110000000000003 z M 3.493 3.966 C 3.4859999999999998 4.029 3.415 4.043 3.415 4.038 C 3.3729349658923096 4.04042846530471 3.336196843555771 4.009813363357594 3.331 3.9680000000000004 C 3.241 3.3160000000000003 2.0549999999999997 3.2600000000000007 1.9589999999999999 3.2570000000000006 C 1.9370985115252553 3.2580964630361975 1.9157070846700222 3.250154491665789 1.8998275236247057 3.2350311001940595 C 1.8839479625793893 3.2199077087223293 1.874972570840736 3.1989289004795127 1.8749999999999998 3.1770000000000005 L 1.8749999999999998 1.522 C 1.8749371887131645 1.4997009988025987 1.884184269512595 1.4783877176582707 1.90051136723467 1.4631997197772706 C 1.9168384649567451 1.4480117218962705 1.938763721626953 1.440327479813028 1.9609999999999999 1.442 C 2.921 1.513 3.28 1.8399999999999999 3.413 2.077 C 3.5469999999999997 1.8399999999999999 3.904 1.515 4.861 1.443 C 4.883888946933787 1.4401155421610394 4.906908852026116 1.4472526228308302 4.924151570247253 1.4625794834718404 C 4.9413942884683895 1.4779063441128506 4.951181033316799 1.4999307300570508 4.951 1.5230000000000001 L 4.951 3.176 C 4.951 3.378 3.6079999999999997 3.186 3.4929999999999994 3.966 z" stroke-linecap="round" />
</g>
<g transform="matrix(146.71 0 0 146.71 795.14 369.89)"  >
<path style="stroke: none; stroke-width: 1; stroke-dasharray: none; stroke-linecap: butt; stroke-dashoffset: 0; stroke-linejoin: miter; stroke-miterlimit: 4; fill: rgb(0,0,0); fill-rule: nonzero; opacity: 1;" vector-effect="non-scaling-stroke"  transform=" translate(-5.09, -2.52)" d="M 4.918 1.457 C 4.882233325727207 1.4365352569338534 4.8367725091683385 1.4465871279731002 4.812968201210503 1.480223650087433 C 4.789163893252668 1.5138601722017657 4.79480443469849 1.5600760812135632 4.8260000000000005 1.5870000000000002 L 5.219 1.866 L 5.204000000000001 3.5060000000000002 C 5.20344771525017 3.550182779986464 5.238817220013537 3.5864477152501695 5.283000000000001 3.587 C 5.327182779986464 3.587552284749831 5.36344771525017 3.5521827799864636 5.364000000000001 3.508 L 5.3790000000000004 1.833 C 5.381632886100299 1.804320563287422 5.368647148425256 1.776439420632183 5.345000000000001 1.76 L 4.918000000000001 1.457 z" stroke-linecap="round" />
</g>
<g transform="matrix(146.71 0 0 146.71 548.58 639.72)"  >
<path style="stroke: none; stroke-width: 1; stroke-dasharray: none; stroke-linecap: butt; stroke-dashoffset: 0; stroke-linejoin: miter; stroke-miterlimit: 4; fill: rgb(0,0,0); fill-rule: nonzero; opacity: 1;" vector-effect="non-scaling-stroke"  transform=" translate(-3.41, -4.36)" d="M 5.469 3.522 L 3.6350000000000002 4.228 L 3.8200000000000003 4.3 L 5.2 3.75 C 5.227 3.742 5.453 3.661 5.469 3.522 z M 3.3850000000000002 4.154 L 5.506 3.336 C 5.530803332037059 3.3239323343351233 5.560073834025074 3.325493397356903 5.583452926583238 3.3401307422628843 C 5.606832019141402 3.354768087168865 5.621021562849713 3.3804167918873937 5.621 3.408 L 5.621 3.4379999999999997 C 5.696000000000001 3.76 5.2490000000000006 3.9029999999999996 5.248 3.904 L 3.857 4.457 C 3.8367370053418703 4.467164274174581 3.8131130969312146 4.468254608408919 3.7920000000000003 4.46 L 3.391 4.305 C 3.3584190134661607 4.2950987104852585 3.3356764829593377 4.265658208884898 3.3343244800414302 4.231632802117558 C 3.3329724771235227 4.19760739535022 3.3533073511476053 4.166455208801611 3.3850000000000002 4.154 z M 3.0050000000000003 4.471 C 2.4520000000000004 4.684 1.9020000000000004 4.898 1.3490000000000004 5.114 C 1.3570000000000004 5.164 1.3880000000000003 5.231 1.4970000000000003 5.224 L 3.197 4.547000000000001 L 3.0060000000000002 4.471000000000001 z M 2.9710000000000005 4.313 C 2.9914061264142124 4.30315991802311 3.0150275051056097 4.302433106371067 3.0360000000000005 4.311 L 3.4360000000000004 4.471 C 3.4679757584874484 4.481096407504431 3.4902620061296292 4.510062739732231 3.491825125779317 4.543558160796965 C 3.4933882454290046 4.5770535818617 3.4738965053014503 4.607969553518754 3.4430000000000005 4.621 L 1.5520000000000005 5.3740000000000006 C 1.543234693475761 5.378357207356856 1.5337441622562789 5.3810687877052805 1.5240000000000005 5.382000000000001 C 1.1720000000000006 5.4190000000000005 1.1840000000000004 5.102 1.1880000000000004 5.0520000000000005 C 1.1900000000000004 5.008000000000001 1.2320000000000004 4.972 1.2760000000000005 4.971 C 1.8410000000000004 4.751 2.4060000000000006 4.531 2.9710000000000005 4.313 z" stroke-linecap="round" />
</g>
<g transform="matrix(146.71 0 0 146.71 806.81 666.01)"  >
<path style="stroke: none; stroke-width: 1; stroke-dasharray: none; stroke-linecap: butt; stroke-dashoffset: 0; stroke-linejoin: miter; stroke-miterlimit: 4; fill: rgb(0,0,0); fill-rule: nonzero; opacity: 1;" vector-effect="non-scaling-stroke"  transform=" translate(-5.17, -4.54)" d="M 4.836 3.962 C 4.808905403745045 3.932267512996889 4.763946746190602 3.9272779308352583 4.7309922531664945 3.950346075952134 C 4.698037760142386 3.9734142210690093 4.6873374243528 4.01736509857146 4.706 4.053 C 4.7620000000000005 4.134 4.846 4.239 4.956 4.3309999999999995 C 5.0680000000000005 4.425 5.206 4.505999999999999 5.368 4.534999999999999 C 5.3870000000000005 4.5409999999999995 5.502000000000001 4.579999999999999 5.476 4.755999999999999 C 5.475131785568338 4.761286397684052 5.474796770606288 4.76664663707686 5.475 4.771999999999999 L 5.467 5.052999999999999 C 5.465895430500338 5.097182779986462 5.500817220013537 5.1338954305003375 5.545 5.134999999999999 C 5.589182779986463 5.13610456949966 5.625895430500338 5.101182779986462 5.627 5.056999999999999 L 5.6339999999999995 4.775999999999999 C 5.677 4.471999999999999 5.451 4.392999999999999 5.409 4.3809999999999985 C 5.2790057234938015 4.356133402122227 5.1581063266374745 4.296719984238546 5.059 4.208999999999999 C 4.974353474501199 4.136599670368272 4.89940147289335 4.05358108562774 4.836 3.961999999999999 z" stroke-linecap="round" />
</g>
<g transform="matrix(146.71 0 0 146.71 550.1 639.87)"  >
<path style="stroke: none; stroke-width: 1; stroke-dasharray: none; stroke-linecap: butt; stroke-dashoffset: 0; stroke-linejoin: miter; stroke-miterlimit: 4; fill: rgb(0,0,0); fill-rule: nonzero; opacity: 1;" vector-effect="non-scaling-stroke"  transform=" translate(-3.42, -4.36)" d="M 1.32 3.336 L 5.587000000000001 4.981 C 5.616894567524631 4.992608523825465 5.636967844436982 5.020947267701725 5.638000000000001 5.053 C 5.642 5.102 5.655000000000001 5.419 5.303000000000001 5.382 L 5.311000000000001 5.302 L 5.303000000000001 5.382 C 5.293255837743723 5.38106878770528 5.2837653065242405 5.3783572073568555 5.275000000000001 5.374 L 1.579000000000001 3.904 C 1.5780000000000012 3.904 1.130000000000001 3.76 1.206000000000001 3.439 L 1.206000000000001 3.4090000000000003 C 1.205798870773876 3.3815211650844024 1.2197152234151796 3.3558622088727628 1.2428567927868286 3.341043484626005 C 1.2659983621584776 3.3262247603792474 1.2951260207062214 3.324320446268076 1.3200000000000012 3.3360000000000003 z M 5.478 5.11 L 1.3579999999999997 3.5220000000000002 C 1.3729999999999996 3.6620000000000004 1.5999999999999996 3.7420000000000004 1.6259999999999997 3.7510000000000003 C 1.6286992755380991 3.7515286951271203 1.6313694885830319 3.7521962483883535 1.6339999999999997 3.753 L 5.329 5.223 C 5.442 5.231 5.471 5.16 5.478 5.109999999999999 z" stroke-linecap="round" />
</g>
<g transform="matrix(146.71 0 0 146.71 548.84 563.1)"  >
<path style="stroke: none; stroke-width: 1; stroke-dasharray: none; stroke-linecap: butt; stroke-dashoffset: 0; stroke-linejoin: miter; stroke-miterlimit: 4; fill: rgb(0,0,0); fill-rule: nonzero; opacity: 1;" vector-effect="non-scaling-stroke"  transform=" translate(-3.41, -3.82)" d="M 2.121 4.053 C 2.1396625756472005 4.01736509857146 2.128962239857615 3.973414221069009 2.0960077468335068 3.950346075952133 C 2.063053253809399 3.927277930835257 2.0180945962549557 3.932267512996888 1.991 3.9619999999999997 C 1.941 4.034 1.866 4.127 1.768 4.209 C 1.6714816993338957 4.294422270289676 1.5542487966314036 4.353038721640922 1.428 4.379 C 1.4246279666698838 4.3794559603941625 1.4212880155332466 4.380123950621489 1.418 4.380999999999999 C 1.375 4.392999999999999 1.15 4.4719999999999995 1.192 4.776 L 1.2 5.0569999999999995 C 1.2011045694996614 5.101182779986463 1.2378172200135362 5.136104569499661 1.2819999999999996 5.135 C 1.3261827799864632 5.133895430500338 1.3611045694996613 5.097182779986463 1.3599999999999999 5.053 L 1.3519999999999999 4.773 L 1.3519999999999999 4.755999999999999 L 1.35 4.755999999999999 C 1.324 4.579999999999999 1.439 4.5409999999999995 1.457 4.536 C 1.619 4.505999999999999 1.7570000000000001 4.425999999999999 1.87 4.3309999999999995 C 1.9800000000000002 4.239 2.064 4.1339999999999995 2.12 4.052999999999999 z M 3.333 3.9579999999999997 C 3.333 4.002182779986463 3.3688172200135367 4.038 3.4130000000000003 4.038 C 3.457182779986464 4.038 3.4930000000000003 4.002182779986463 3.4930000000000003 3.9579999999999997 L 3.4930000000000003 2.332 C 3.4930000000000003 2.2878172200135363 3.457182779986464 2.252 3.4130000000000003 2.252 C 3.3688172200135367 2.252 3.333 2.2878172200135363 3.333 2.332 L 3.333 3.9579999999999997 z M 0.935 5.225 C 0.8908172200135366 5.225 0.855 5.260817220013537 0.855 5.305 C 0.855 5.349182779986463 0.8908172200135366 5.385 0.935 5.385 L 5.8919999999999995 5.385 C 5.936182779986463 5.385 5.9719999999999995 5.349182779986463 5.9719999999999995 5.305 C 5.9719999999999995 5.260817220013537 5.936182779986463 5.225 5.8919999999999995 5.225 L 0.935 5.225 z" stroke-linecap="round" />
</g>
<g transform="matrix(146.71 0 0 146.71 548.75 417)"  >
<path style="stroke: none; stroke-width: 1; stroke-dasharray: none; stroke-linecap: butt; stroke-dashoffset: 0; stroke-linejoin: miter; stroke-miterlimit: 4; fill: rgb(224,224,224); fill-rule: nonzero; opacity: 1;" vector-effect="non-scaling-stroke"  transform=" translate(-3.41, -2.84)" d="M 3.314 3.888 C 3.142 3.311 2.051 3.26 1.959 3.2569999999999997 C 1.9370985115252555 3.2580964630361966 1.9157070846700224 3.2501544916657883 1.899827523624706 3.2350311001940586 C 1.8839479625793896 3.2199077087223285 1.8749725708407363 3.198928900479512 1.875 3.1769999999999996 L 1.875 1.6769999999999996 L 1.607 1.8669999999999995 L 1.6079999999999999 3.4469999999999996 L 3.061 4.007 C 3.0985920883754035 3.9709811875087713 3.1427153371691476 3.9424707805958903 3.191 3.9229999999999996 C 3.2306056183568876 3.906896272276331 3.271849479434086 3.895160214246234 3.314 3.8879999999999995 z M 4.952 3.176 C 4.952 3.37 3.708 3.2 3.511 3.882 C 3.5660000000000003 3.888 3.6180000000000003 3.9010000000000002 3.664 3.919 C 3.714 3.939 3.7590000000000003 3.965 3.794 3.996 L 5.204 3.453 L 5.218999999999999 1.8659999999999999 L 4.951999999999999 1.676 L 4.951999999999999 3.176 z" stroke-linecap="round" />
</g>
<g transform="matrix(150.33 0 0 149.68 550.09 383.82)"  >
<path style="stroke: none; stroke-width: 1; stroke-dasharray: none; stroke-linecap: butt; stroke-dashoffset: 0; stroke-linejoin: miter; stroke-miterlimit: 4; fill: rgb(56,189,248); fill-rule: nonzero; opacity: 1;" vector-effect="non-scaling-stroke"  transform=" translate(-3.41, -2.6)" d="M 3.493 2.34 L 3.493 3.596 C 3.823 3.204 4.553 3.119 4.792 3.101 L 4.792 1.61 C 3.5069999999999997 1.73 3.493 2.31 3.493 2.333 C 3.493106709367501 2.3356655991458126 3.493106709367501 2.3383344008541878 3.493 2.341 z M 3.3329999999999997 3.5969999999999995 L 3.3329999999999997 2.33 C 3.3329999999999997 2.305 3.316 1.727 2.0349999999999997 1.608 L 2.0349999999999997 3.1 C 2.2739999999999996 3.117 3.005 3.2 3.3329999999999997 3.596 z" stroke-linecap="round" />
</g>
<g transform="matrix(146.71 0 0 146.71 550.17 642.08)"  >
<path style="stroke: none; stroke-width: 1; stroke-dasharray: none; stroke-linecap: butt; stroke-dashoffset: 0; stroke-linejoin: miter; stroke-miterlimit: 4; fill: rgb(181,157,157); fill-rule: nonzero; opacity: 1;" vector-effect="non-scaling-stroke"  transform=" translate(-3.42, -4.37)" d="M 5.31 3.583 L 3.8049999999999997 4.163 C 3.8017355439391975 4.164216671679871 3.7983950991039017 4.16521880513046 3.795 4.166 L 3.635 4.228000000000001 L 3.82 4.300000000000001 L 4.74 3.9340000000000006 C 4.740993313602721 3.9336469330592556 4.741993508953377 3.933313534609037 4.743 3.9330000000000007 L 5.2 3.75 C 5.227 3.741 5.453 3.66 5.469 3.52 L 5.315 3.58 C 5.313355679654931 3.5807212289098755 5.311688113980827 3.5813882551795166 5.3100000000000005 3.582 z M 3.38 4.3 L 3.061 4.178 C 3.058958934964154 4.177084329270632 3.0569571756050022 4.176083449591055 3.055 4.175 L 1.3590000000000002 3.522 C 1.374 3.662 1.6010000000000002 3.742 1.6270000000000002 3.751 C 1.6296992755380997 3.75152869512712 1.6323694885830324 3.752196248388353 1.6350000000000002 3.7529999999999997 L 2.0850000000000004 3.933 L 2.0880000000000005 3.9339999999999997 L 3.0300000000000002 4.308999999999999 L 3.0370000000000004 4.310999999999999 L 3.4370000000000003 4.470999999999999 C 3.4414704557399043 4.47228555252144 3.4458202708539507 4.473958558334536 3.45 4.475999999999999 L 5.33 5.223999999999999 C 5.4430000000000005 5.230999999999999 5.472 5.159999999999999 5.479 5.109999999999999 L 3.7990000000000004 4.462 C 3.796975025017989 4.461410738807568 3.794973536701069 4.460743576035261 3.7930000000000006 4.46 L 3.3920000000000003 4.305 C 3.3878709825453233 4.303661631256062 3.3838577356590482 4.301989445053447 3.3800000000000003 4.3 z" stroke-linecap="round" />
</g>
<g transform="matrix(146.71 0 0 146.71 351.81 664.07)"  >
<path style="stroke: none; stroke-width: 1; stroke-dasharray: none; stroke-linecap: butt; stroke-dashoffset: 0; stroke-linejoin: miter; stroke-miterlimit: 4; fill: rgb(215,203,203); fill-rule: nonzero; opacity: 1;" vector-effect="non-scaling-stroke"  transform=" translate(-2.07, -4.52)" d="M 2.787 4.384 L 2.084 4.104 C 2.0215643075077967 4.187269778025473 1.9501321823862958 4.263396972403786 1.871 4.331 C 1.753516033836929 4.433908008453469 1.6111226097276892 4.504242774841567 1.458 4.535 C 1.44 4.541 1.325 4.58 1.351 4.756 C 1.3515346733752938 4.761319932913728 1.3515346733752938 4.766680067086273 1.351 4.772 L 1.3559999999999999 4.94 C 1.8329999999999997 4.753 2.3099999999999996 4.569000000000001 2.787 4.384 z" stroke-linecap="round" />
</g>
<g transform="matrix(146.71 0 0 146.71 382.12 711.87)"  >
<path style="stroke: none; stroke-width: 1; stroke-dasharray: none; stroke-linecap: butt; stroke-dashoffset: 0; stroke-linejoin: miter; stroke-miterlimit: 4; fill: rgb(181,157,157); fill-rule: nonzero; opacity: 1;" vector-effect="non-scaling-stroke"  transform=" translate(-2.27, -4.85)" d="M 3.006 4.471 C 2.452 4.684 1.9019999999999997 4.898 1.3489999999999998 5.114 C 1.3569999999999998 5.164 1.3879999999999997 5.231 1.4969999999999997 5.224 L 3.1969999999999996 4.547000000000001 L 3.006 4.471000000000001 z" stroke-linecap="round" />
</g>
<g transform="matrix(146.71 0 0 146.71 746.82 663.78)"  >
<path style="stroke: none; stroke-width: 1; stroke-dasharray: none; stroke-linecap: butt; stroke-dashoffset: 0; stroke-linejoin: miter; stroke-miterlimit: 4; fill: rgb(215,203,203); fill-rule: nonzero; opacity: 1;" vector-effect="non-scaling-stroke"  transform=" translate(-4.76, -4.52)" d="M 4.04 4.384 L 5.47 4.936 L 5.475 4.772 L 5.475 4.756 C 5.502 4.58 5.387 4.541 5.367999999999999 4.5360000000000005 C 5.21513104274708 4.504788907559026 5.073091963821499 4.43411412314217 4.9559999999999995 4.331 C 4.876867817613704 4.263396972403786 4.805435692492202 4.187269778025473 4.742999999999999 4.104 L 4.039 4.384 z" stroke-linecap="round" />
</g>
<g transform="matrix(153.76 0 0 158.5 548.39 725.07)"  >
<path style="stroke: none; stroke-width: 1; stroke-dasharray: none; stroke-linecap: butt; stroke-dashoffset: 0; stroke-linejoin: miter; stroke-miterlimit: 4; fill: rgb(55,189,248); fill-rule: nonzero; opacity: 1;" vector-effect="non-scaling-stroke"  transform=" translate(-3.41, -4.93)" d="M 4.9 5.225 L 3.4130000000000003 4.633 L 1.9270000000000003 5.225 z" stroke-linecap="round" />
</g>
<g transform="matrix(146.71 0 0 146.71 550.83 600.75)"  >
<path style="stroke: none; stroke-width: 1; stroke-dasharray: none; stroke-linecap: butt; stroke-dashoffset: 0; stroke-linejoin: miter; stroke-miterlimit: 4; fill: rgb(179,179,179); fill-rule: nonzero; opacity: 1;" vector-effect="non-scaling-stroke"  transform=" translate(-3.42, -4.09)" d="M 3.413 4.143 L 3.6069999999999998 4.068 C 3.545714851607277 4.045013780988971 3.48037602795792 4.034804589793759 3.414999999999999 4.037999999999999 L 3.4119999999999995 4.037999999999999 C 3.3527692500309327 4.039592515908194 3.2943886383937553 4.052490558014082 3.2399999999999993 4.076 L 3.4129999999999994 4.143 z" stroke-linecap="round" />
</g>
<g transform="matrix(23.78 0 0 23.78 540 106.64)"  >
<path style="stroke: none; stroke-width: 1; stroke-dasharray: none; stroke-linecap: butt; stroke-dashoffset: 0; stroke-linejoin: miter; stroke-miterlimit: 4; fill: none; fill-rule: nonzero; opacity: 1;" vector-effect="non-scaling-stroke"  transform=" translate(-3.41, -3.41)" d="M 0 0 L 6.827 0 L 6.827 6.827 L 0 6.827 z" stroke-linecap="round" />
</g>
</svg>