<svg xmlns="http://www.w3.org/2000/svg" data-name="Layer 1" viewBox="0 0 32 32"><path fill="#fdc475" d="m13.666 6.818-1.517 2.907 3.236 1.191.98-1.981"/><path fill="#ffdaa7" d="m15.134 9.26-.476-.253a3.224 3.224 0 0 1-1.327-4.387l.964-1.774a3.283 3.283 0 0 1 4.427-1.315l.476.254a3.224 3.224 0 0 1 1.327 4.387l-.964 1.774a3.283 3.283 0 0 1-4.427 1.315Z"/><path fill="#ffdaa7" d="m15.69 9.48-.475-.253a3.224 3.224 0 0 1-1.327-4.387l.964-1.774a3.279 3.279 0 0 1 3.774-1.574 3.278 3.278 0 0 0-4.331 1.354l-.964 1.774a3.224 3.224 0 0 0 1.327 4.387l.476.254a3.284 3.284 0 0 0 .653.26c-.032-.016-.065-.024-.096-.04Z"/><path fill="#e0e0e2" d="M14.423 2.607q1.399.81 2.824 1.669 1.65.994 3.228 1.989a3.553 3.553 0 0 0-1.333-4.943 3.452 3.452 0 0 0-1.68-.475 3.99 3.99 0 0 0-3.039 1.76Z"/><path fill="#d9d8da" d="M17.998 1.17a3.333 3.333 0 0 1 1.39.326c-.084-.057-.155-.122-.245-.174a3.452 3.452 0 0 0-1.68-.475 3.99 3.99 0 0 0-3.04 1.76c.178.103.36.214.538.318a3.984 3.984 0 0 1 3.037-1.756zm-.216 3.428-.297-.176c1.016.615 2.016 1.229 2.99 1.843l.003-.006a189.453 189.453 0 0 0-2.696-1.661z"/><path fill="#58565d" d="m14.423 2.607 2.552 1.505c-.55.29-1.198.688-1.828 1.108a18.45 18.45 0 0 0-2.03 1.58l-.1.02a3.161 3.161 0 0 1 .31-2.2l.97-1.77Z"/><path fill="#3c3b41" d="m13.87 4.942.97-1.77.126-.242 2.008 1.183.001-.001-2.552-1.505-.126.243-.97 1.77a3.161 3.161 0 0 0-.31 2.2l.1-.02c.115-.103.253-.21.376-.315a3.152 3.152 0 0 1 .377-1.543Z"/><path fill="#e0e0e2" d="M20.49 31.5H5.92v-3.86h1.47l2.16-1.02 5.4 1.02 2.92-.66s.43.29.44.29l3.77.79c.04.05.08.09.12.15v.01a2.073 2.073 0 0 1-1.71 3.28Z"/><path fill="#d9d8da" d="M22.2 28.21v.01c-.02.46-.34.98-1.67 1.04-4.78.22-4.53.42-5.53.33-2.3-.2-2.69-.92-5.31-1.01a13.48 13.48 0 0 0-2.01.032c-.06-.34-.24-.642-.29-.972l2.16-1.02 5.4 1.02 2.92-.66s.43.29.44.29l3.77.79c.04.05.08.09.12.15Z"/><path fill="#e0e0e2" d="M20.53 28.26c-4.78.22-4.53.42-5.53.33-2.3-.2-2.69-.92-5.31-1.01a16.995 16.995 0 0 0-2.3.06c-.15-.84-.25-1.64-.4-2.48a21.17 21.17 0 0 1-.28-2.51 17.159 17.159 0 0 1 .04-2.38 15.551 15.551 0 0 1 .38-2.25 16.298 16.298 0 0 1 .69-2.15 18.401 18.401 0 0 1 1.01-2.1 27.826 27.826 0 0 1 2.07-3.17 2.69 2.69 0 0 1 .84-.77 1.213 1.213 0 0 1 .35-.12 2.41 2.41 0 0 1 .84.04 5.377 5.377 0 0 1 1.18.3 5.28 5.28 0 0 1 1.13.59c1.05.72 1.34 2.1 1.58 3.27.01.04.01.08.02.12a11.585 11.585 0 0 1 .21 1.56 6.967 6.967 0 0 1-.8 3.11c-.05.12-.09.24-.13.36-.5 1.49.66 2.9 1.79 3.75 1.51 1.14 3.31 1.96 4.14 3.76.14.31.62 1.59-1.52 1.69Z"/><path fill="#d9d8da" d="M7.99 25.16a21.17 21.17 0 0 1-.28-2.51 17.159 17.159 0 0 1 .04-2.38 15.551 15.551 0 0 1 .38-2.25 16.298 16.298 0 0 1 .69-2.15 18.401 18.401 0 0 1 1.01-2.1 27.826 27.826 0 0 1 2.07-3.17 2.69 2.69 0 0 1 .84-.77 1.293 1.293 0 0 1 .218-.075l-.028-.005a2.41 2.41 0 0 0-.84-.04 1.213 1.213 0 0 0-.35.12 2.69 2.69 0 0 0-.84.77 27.826 27.826 0 0 0-2.07 3.17 18.401 18.401 0 0 0-1.01 2.1 16.298 16.298 0 0 0-.69 2.15 15.551 15.551 0 0 0-.38 2.25 17.159 17.159 0 0 0-.04 2.38 21.17 21.17 0 0 0 .28 2.51c.15.84.25 1.64.4 2.48.257-.03.595-.053.99-.064-.144-.816-.244-1.598-.39-2.416Z"/><path fill="#ffdaa7" d="M5.917 31.5v-3.86a2.646 2.646 0 0 0-1.416.396 4.08 4.08 0 0 0-1.167 1.544 6.116 6.116 0 0 1-1.97 1.92Z"/><path fill="#d9d8da" d="M17.05 15.59a6.967 6.967 0 0 1-.8 3.11l-3.931-1.926a.507.507 0 0 1-.22-.7L13.7 13.18l3.28 1.7c.03.24.05.47.07.71Z"/><path fill="#e0e0e2" d="m13.696 12.18 4.667 2.407 2.822-3.735a.149.149 0 0 1 .132-.058l2.449.225a.149.149 0 0 1 .119.216l-2.874 5.657a2.877 2.877 0 0 1-3.808 1.273l-5.361-2.627"/><path fill="#ffdaa7" d="M21.445 10.805a10.664 10.664 0 0 0 .708-1.993c.19-.766 1.28-1.836 1.77-1.744a10.875 10.875 0 0 1-.253 3.942l-2.079-.191"/></svg>