<svg width="64" height="64" viewBox="0 0 64 64" fill="none" xmlns="http://www.w3.org/2000/svg">
<path d="M52 3H17C15.4093 3.00185 13.8842 3.63459 12.7594 4.75941C11.6346 5.88422 11.0019 7.40927 11 9V55C11 55.2652 11.1054 55.5196 11.2929 55.7071C11.4804 55.8946 11.7348 56 12 56C12.2652 56 12.5196 55.8946 12.7071 55.7071C12.8946 55.5196 13 55.2652 13 55C13.0013 53.9395 13.4232 52.9229 14.173 52.173C14.9229 51.4232 15.9395 51.0013 17 51H52C52.2652 51 52.5196 50.8946 52.7071 50.7071C52.8946 50.5196 53 50.2652 53 50V4C53 3.73478 52.8946 3.48043 52.7071 3.29289C52.5196 3.10536 52.2652 3 52 3V3Z" fill="#38BDF8"/>
<path d="M41.7068 22.293L39.9498 20.536V18.05C39.9498 17.7848 39.8444 17.5304 39.6569 17.3429C39.4694 17.1554 39.215 17.05 38.9498 17.05H36.4638L34.7068 15.293C34.5193 15.1055 34.265 15.0002 33.9998 15.0002C33.7346 15.0002 33.4803 15.1055 33.2928 15.293L31.5358 17.05H29.0498C28.7846 17.05 28.5302 17.1554 28.3427 17.3429C28.1551 17.5304 28.0498 17.7848 28.0498 18.05V20.535L26.2928 22.293C26.1053 22.4805 26 22.7348 26 23C26 23.2652 26.1053 23.5195 26.2928 23.707L28.0498 25.464V27.95C28.0498 28.2152 28.1551 28.4696 28.3427 28.6571C28.5302 28.8446 28.7846 28.95 29.0498 28.95H31.5348L33.2928 30.707C33.4803 30.8945 33.7346 30.9998 33.9998 30.9998C34.265 30.9998 34.5193 30.8945 34.7068 30.707L36.4638 28.95H38.9498C39.215 28.95 39.4694 28.8446 39.6569 28.6571C39.8444 28.4696 39.9498 28.2152 39.9498 27.95V25.464L41.7068 23.707C41.8943 23.5195 41.9996 23.2652 41.9996 23C41.9996 22.7348 41.8943 22.4805 41.7068 22.293Z" fill="#FCF9F3"/>
<path d="M52.857 59.485C51.242 56.793 51.257 53.833 52.9 50.435C52.9736 50.2826 53.0074 50.114 52.9981 49.945C52.9887 49.776 52.9367 49.6121 52.8467 49.4687C52.7568 49.3253 52.6319 49.2071 52.4838 49.1251C52.3357 49.0431 52.1693 49.0001 52 49H17C15.4087 49 13.8826 49.6321 12.7574 50.7574C11.6321 51.8826 11 53.4087 11 55C11 56.5913 11.6321 58.1174 12.7574 59.2426C13.8826 60.3679 15.4087 61 17 61H52C52.177 61 52.3508 60.953 52.5037 60.8638C52.6566 60.7746 52.7831 60.6464 52.8702 60.4924C52.9573 60.3383 53.002 60.1639 52.9997 59.9869C52.9974 59.8099 52.9482 59.6367 52.857 59.485Z" fill="url(#paint0_linear_0_1)"/>
<path d="M17 61H52C52.177 61 52.3508 60.953 52.5037 60.8638C52.6566 60.7746 52.7831 60.6464 52.8702 60.4924C52.9573 60.3383 53.002 60.1639 52.9997 59.9869C52.9974 59.8099 52.9482 59.6367 52.857 59.485C51.242 56.793 51.257 53.833 52.9 50.435C52.905 50.425 52.906 50.415 52.91 50.405C52.919 50.387 52.922 50.367 52.93 50.348C52.967 50.2493 52.9879 50.1453 52.992 50.04C52.992 50.026 53 50.014 53 50V4C53 3.73478 52.8946 3.48043 52.7071 3.29289C52.5196 3.10536 52.2652 3 52 3H17C15.4093 3.00185 13.8842 3.63459 12.7594 4.75941C11.6346 5.88422 11.0019 7.40927 11 9V55C11.0019 56.5907 11.6346 58.1158 12.7594 59.2406C13.8842 60.3654 15.4093 60.9981 17 61V61ZM50.385 59H17C15.9391 59 14.9217 58.5786 14.1716 57.8284C13.4214 57.0783 13 56.0609 13 55C13 53.9391 13.4214 52.9217 14.1716 52.1716C14.9217 51.4214 15.9391 51 17 51H50.484C49.4222 53.5544 49.3864 56.4199 50.384 59H50.385ZM13 9C13.0013 7.93954 13.4232 6.92289 14.173 6.17303C14.9229 5.42318 15.9395 5.00132 17 5H51V49H17C15.5478 49.0045 14.1463 49.534 13.054 50.491C13.037 50.506 13.017 50.517 13 50.531V9Z" fill="url(#paint1_linear_0_1)"/>
<path d="M28.0498 25.464V27.95C28.0498 28.2152 28.1551 28.4696 28.3427 28.6571C28.5302 28.8446 28.7846 28.95 29.0498 28.95H31.5348L33.2928 30.707C33.4803 30.8945 33.7346 30.9998 33.9998 30.9998C34.265 30.9998 34.5193 30.8945 34.7068 30.707L36.4638 28.95H38.9498C39.215 28.95 39.4694 28.8446 39.6569 28.6571C39.8444 28.4696 39.9498 28.2152 39.9498 27.95V25.464L41.7068 23.707C41.8943 23.5195 41.9996 23.2652 41.9996 23C41.9996 22.7348 41.8943 22.4805 41.7068 22.293L39.9498 20.536V18.05C39.9498 17.7848 39.8444 17.5304 39.6569 17.3429C39.4694 17.1554 39.215 17.05 38.9498 17.05H36.4638L34.7068 15.293C34.5193 15.1055 34.265 15.0002 33.9998 15.0002C33.7346 15.0002 33.4803 15.1055 33.2928 15.293L31.5358 17.05H29.0498C28.7846 17.05 28.5302 17.1554 28.3427 17.3429C28.1551 17.5304 28.0498 17.7848 28.0498 18.05V20.535L26.2928 22.293C26.1053 22.4805 26 22.7348 26 23C26 23.2652 26.1053 23.5195 26.2928 23.707L28.0498 25.464ZM29.7568 21.657C29.9443 21.4695 30.0497 21.2152 30.0498 20.95V19.05H31.9498C32.215 19.0499 32.4693 18.9445 32.6568 18.757L33.9998 17.414L35.3428 18.757C35.5303 18.9445 35.7846 19.0499 36.0498 19.05H37.9498V20.95C37.9498 21.2152 38.0552 21.4695 38.2428 21.657L39.5858 23L38.2428 24.343C38.0552 24.5305 37.9498 24.7848 37.9498 25.05V26.95H36.0498C35.7846 26.9501 35.5303 27.0555 35.3428 27.243L33.9998 28.586L32.6568 27.243C32.4693 27.0555 32.215 26.9501 31.9498 26.95H30.0498V25.05C30.0497 24.7848 29.9443 24.5305 29.7568 24.343L28.4138 23L29.7568 21.657Z" fill="url(#paint2_linear_0_1)"/>
<path d="M21 42C21.7954 42.0008 22.558 42.3171 23.1204 42.8796C23.6829 43.442 23.9992 44.2046 24 45C24 45.2652 24.1054 45.5196 24.2929 45.7071C24.4804 45.8946 24.7348 46 25 46H43C43.2652 46 43.5196 45.8946 43.7071 45.7071C43.8946 45.5196 44 45.2652 44 45C44.0008 44.2046 44.3171 43.442 44.8796 42.8796C45.442 42.3171 46.2046 42.0008 47 42C47.2652 42 47.5196 41.8946 47.7071 41.7071C47.8946 41.5196 48 41.2652 48 41V13C48 12.7348 47.8946 12.4804 47.7071 12.2929C47.5196 12.1054 47.2652 12 47 12C46.2046 11.9992 45.442 11.6829 44.8796 11.1204C44.3171 10.558 44.0008 9.79541 44 9C44 8.73478 43.8946 8.48043 43.7071 8.29289C43.5196 8.10536 43.2652 8 43 8H25C24.7348 8 24.4804 8.10536 24.2929 8.29289C24.1054 8.48043 24 8.73478 24 9C23.9992 9.79541 23.6829 10.558 23.1204 11.1204C22.558 11.6829 21.7954 11.9992 21 12C20.7348 12 20.4804 12.1054 20.2929 12.2929C20.1054 12.4804 20 12.7348 20 13V41C20 41.2652 20.1054 41.5196 20.2929 41.7071C20.4804 41.8946 20.7348 42 21 42ZM22 13.9C22.9601 13.7022 23.8411 13.2274 24.5343 12.5343C25.2274 11.8411 25.7022 10.9601 25.9 10H42.1C42.2978 10.9601 42.7726 11.8411 43.4657 12.5343C44.1589 13.2274 45.0399 13.7022 46 13.9V40.1C45.0399 40.2978 44.1589 40.7726 43.4657 41.4657C42.7726 42.1589 42.2978 43.0399 42.1 44H25.9C25.7022 43.0399 25.2274 42.1589 24.5343 41.4657C23.8411 40.7726 22.9601 40.2978 22 40.1V13.9Z" fill="url(#paint3_linear_0_1)"/>
<path d="M28 36H40V38H28V36Z" fill="url(#paint4_linear_0_1)"/>
<defs>
<linearGradient id="paint0_linear_0_1" x1="32" y1="49" x2="32" y2="61" gradientUnits="userSpaceOnUse">
<stop stop-color="#EDEDED"/>
<stop offset="1" stop-color="#D0D0D0"/>
</linearGradient>
<linearGradient id="paint1_linear_0_1" x1="32.001" y1="61" x2="32.001" y2="3" gradientUnits="userSpaceOnUse">
<stop stop-color="#000406"/>
<stop offset="1" stop-color="#001521"/>
</linearGradient>
<linearGradient id="paint2_linear_0_1" x1="33.9998" y1="31" x2="33.9998" y2="15" gradientUnits="userSpaceOnUse">
<stop stop-color="#000406"/>
<stop offset="1" stop-color="#001521"/>
</linearGradient>
<linearGradient id="paint3_linear_0_1" x1="34" y1="46" x2="34" y2="8" gradientUnits="userSpaceOnUse">
<stop stop-color="#000406"/>
<stop offset="1" stop-color="#001521"/>
</linearGradient>
<linearGradient id="paint4_linear_0_1" x1="34" y1="38" x2="34" y2="36" gradientUnits="userSpaceOnUse">
<stop stop-color="#000406"/>
<stop offset="1" stop-color="#001521"/>
</linearGradient>
</defs>
</svg>
