<svg xmlns="http://www.w3.org/2000/svg" xmlns:xlink="http://www.w3.org/1999/xlink" viewBox="0 0 64 64"><defs><linearGradient id="b" x1="32" x2="32" y1="56" y2="3" gradientUnits="userSpaceOnUse"><stop offset="0" stop-color="#00684e"/><stop offset="1" stop-color="#009c6b"/></linearGradient><linearGradient id="c" x1="34" x2="34" y1="15" y2="31" gradientUnits="userSpaceOnUse"><stop offset="0" stop-color="#ffc033"/><stop offset="1" stop-color="#ef8e2e"/></linearGradient><linearGradient id="d" x1="32" x2="32" y1="49" y2="61" gradientUnits="userSpaceOnUse"><stop offset="0" stop-color="#ededed"/><stop offset="1" stop-color="#d0d0d0"/></linearGradient><linearGradient id="a" x1="32.001" x2="32.001" y1="61" y2="3" gradientUnits="userSpaceOnUse"><stop offset="0" stop-color="#000406"/><stop offset="1" stop-color="#001521"/></linearGradient><linearGradient id="e" x1="34" x2="34" y1="31" y2="15" xlink:href="#a"/><linearGradient id="f" x1="34" x2="34" y1="46" y2="8" xlink:href="#a"/><linearGradient id="g" x1="34" x2="34" y1="38" y2="36" xlink:href="#a"/></defs><g data-name="Layer 2"><path fill="url(#b)" d="M52 3H17a6.007 6.007 0 0 0-6 6v46a1 1 0 0 0 2 0 4.005 4.005 0 0 1 4-4h35a1 1 0 0 0 1-1V4a1 1 0 0 0-1-1Z"/><path fill="url(#c)" d="m41.707 22.293-1.757-1.757V18.05a1 1 0 0 0-1-1h-2.486l-1.757-1.757a1 1 0 0 0-1.414 0l-1.757 1.757H29.05a1 1 0 0 0-1 1v2.485l-1.757 1.758a1 1 0 0 0 0 1.414l1.757 1.757v2.486a1 1 0 0 0 1 1h2.485l1.758 1.757a1 1 0 0 0 1.414 0l1.757-1.757h2.486a1 1 0 0 0 1-1v-2.486l1.757-1.757a1 1 0 0 0 0-1.414Z"/><path fill="url(#d)" d="M52.857 59.485c-1.615-2.692-1.6-5.652.043-9.05A1 1 0 0 0 52 49H17a6 6 0 0 0 0 12h35a1 1 0 0 0 .857-1.515Z"/></g><g data-name="Layer 3"><path fill="url(#a)" d="M17 61h35a1 1 0 0 0 .857-1.515c-1.615-2.692-1.6-5.652.043-9.05.005-.01.006-.02.01-.03.009-.018.012-.038.02-.057a.987.987 0 0 0 .062-.308c0-.014.008-.026.008-.04V4a1 1 0 0 0-1-1H17a6.007 6.007 0 0 0-6 6v46a6.007 6.007 0 0 0 6 6Zm33.385-2H17a4 4 0 0 1 0-8h33.484a10.746 10.746 0 0 0-.1 8ZM13 9a4.005 4.005 0 0 1 4-4h34v44H17a6.016 6.016 0 0 0-3.946 1.491c-.017.015-.037.026-.054.04Z"/><path fill="url(#e)" d="M28.05 25.464v2.486a1 1 0 0 0 1 1h2.485l1.758 1.757a1 1 0 0 0 1.414 0l1.757-1.757h2.486a1 1 0 0 0 1-1v-2.486l1.757-1.757a1 1 0 0 0 0-1.414l-1.757-1.757V18.05a1 1 0 0 0-1-1h-2.486l-1.757-1.757a1 1 0 0 0-1.414 0l-1.757 1.757H29.05a1 1 0 0 0-1 1v2.485l-1.757 1.758a1 1 0 0 0 0 1.414Zm1.707-3.807a1 1 0 0 0 .293-.707v-1.9h1.9a1 1 0 0 0 .707-.293L34 17.414l1.343 1.343a1 1 0 0 0 .707.293h1.9v1.9a1 1 0 0 0 .293.707L39.586 23l-1.343 1.343a1 1 0 0 0-.293.707v1.9h-1.9a1 1 0 0 0-.707.293L34 28.586l-1.343-1.343a1 1 0 0 0-.707-.293h-1.9v-1.9a1 1 0 0 0-.293-.707L28.414 23Z"/><path fill="url(#f)" d="M21 42a3.003 3.003 0 0 1 3 3 1 1 0 0 0 1 1h18a1 1 0 0 0 1-1 3.003 3.003 0 0 1 3-3 1 1 0 0 0 1-1V13a1 1 0 0 0-1-1 3.003 3.003 0 0 1-3-3 1 1 0 0 0-1-1H25a1 1 0 0 0-1 1 3.003 3.003 0 0 1-3 3 1 1 0 0 0-1 1v28a1 1 0 0 0 1 1Zm1-28.1a5.015 5.015 0 0 0 3.9-3.9h16.2a5.015 5.015 0 0 0 3.9 3.9v26.2a5.015 5.015 0 0 0-3.9 3.9H25.9a5.015 5.015 0 0 0-3.9-3.9Z"/><path fill="url(#g)" d="M28 36h12v2H28z"/></g></svg>