<svg xmlns="http://www.w3.org/2000/svg" width="655.359" height="655.359" fill-rule="evenodd" clip-rule="evenodd" image-rendering="optimizeQuality" shape-rendering="geometricPrecision" text-rendering="geometricPrecision" viewBox="0 0 6.827 6.827"><path fill="none" d="M0 0h6.827v6.827H0z"/><path fill="none" d="M0 0h6.827v6.827H0z"/><path fill="#013668" fill-rule="nonzero" d="M2.354.923a.08.08 0 0 0-.153.046l.193.634a.08.08 0 0 0 .153-.047L2.354.923z"/><path fill="#013668" fill-rule="nonzero" d="M2.915 2.248a.08.08 0 0 1-.044.008c-.583-.062-.495-.306-.495-.684 0-.044.046-.08.103-.08.098 0 1.027.52.436.756zm-.397-.556c-.024.126-.015.355.35.401.193-.094-.175-.31-.35-.401z"/><path fill="#013668" fill-rule="nonzero" d="M2.845 2.262c-.231.321-1.568 2.325.38 3.302.488.245.844.232 1.075.061.154-.114.255-.3.305-.529a2.008 2.008 0 0 0-.01-.807c-.164-.82-.755-1.725-1.75-2.027zm.308 3.445c-2.241-1.124-.491-3.47-.406-3.581a.08.08 0 0 1 .088-.034c1.093.304 1.74 1.282 1.917 2.165.063.313.066.615.01.873-.058.266-.18.485-.367.624-.278.206-.692.23-1.242-.047z"/><path fill="#013668" fill-rule="nonzero" d="M2.104 3.775c.048 0 .092.017.125.045a.16.16 0 0 1 .06.123.16.16 0 0 1-.06.124.195.195 0 0 1-.125.045.195.195 0 0 1-.126-.045.16.16 0 0 1-.06-.124.16.16 0 0 1 .06-.123.195.195 0 0 1 .126-.045zm.022.167a.034.034 0 0 0-.022-.006.034.034 0 0 0-.022.006l-.002.001.002.002a.034.034 0 0 0 .022.006c.01 0 .017-.002.022-.006l.002-.002h-.002zm-.008.189c.048 0 .093.017.126.045a.16.16 0 0 1 .059.123.16.16 0 0 1-.06.124.195.195 0 0 1-.125.045.195.195 0 0 1-.126-.045.16.16 0 0 1-.059-.124.16.16 0 0 1 .06-.123.195.195 0 0 1 .125-.045zm.022.167a.034.034 0 0 0-.022-.007.034.034 0 0 0-.022.007l-.002.001.002.001a.034.034 0 0 0 .022.007c.01 0 .017-.003.022-.007h.002l-.002-.002z"/><path fill="#013668" fill-rule="nonzero" d="M2.198 4.455c.049 0 .093.018.126.045a.16.16 0 0 1 .06.124.16.16 0 0 1-.06.124.195.195 0 0 1-.126.045.195.195 0 0 1-.125-.045.16.16 0 0 1-.06-.124.16.16 0 0 1 .06-.124.195.195 0 0 1 .125-.045zm.023.168a.034.034 0 0 0-.023-.007.034.034 0 0 0-.022.007l-.002.001.002.001a.034.034 0 0 0 .022.007c.01 0 .018-.003.023-.007l.002-.001-.002-.001zm.135.146c.048 0 .093.017.126.045a.16.16 0 0 1 .059.124.16.16 0 0 1-.06.123.195.195 0 0 1-.125.045.195.195 0 0 1-.126-.045.16.16 0 0 1-.059-.123.16.16 0 0 1 .06-.124.195.195 0 0 1 .125-.045zm.022.168a.034.034 0 0 0-.022-.007.034.034 0 0 0-.022.007h-.002l.002.002a.034.034 0 0 0 .022.007c.01 0 .017-.003.022-.007l.002-.001-.002-.001zm.205.108c.048 0 .093.018.126.045a.16.16 0 0 1 .06.124.16.16 0 0 1-.06.123.195.195 0 0 1-.126.045.195.195 0 0 1-.126-.045.16.16 0 0 1-.059-.123.16.16 0 0 1 .06-.124.195.195 0 0 1 .125-.045zm.022.168a.034.034 0 0 0-.022-.007.034.034 0 0 0-.022.007H2.56l.002.002a.034.034 0 0 0 .022.007c.01 0 .017-.003.022-.007l.002-.001-.002-.001z"/><path fill="#013668" fill-rule="nonzero" d="M2.855 5.27c.048 0 .093.017.126.045a.16.16 0 0 1 .059.124.16.16 0 0 1-.06.123.195.195 0 0 1-.125.045.195.195 0 0 1-.126-.045.16.16 0 0 1-.059-.123.16.16 0 0 1 .06-.124.195.195 0 0 1 .125-.045zm.022.168a.034.034 0 0 0-.022-.007.034.034 0 0 0-.022.007h-.002l.002.002a.034.034 0 0 0 .022.006c.01 0 .017-.002.022-.006l.002-.001-.002-.001z"/><path fill="#013668" fill-rule="nonzero" d="M3.135 5.44c.048 0 .092.017.125.044a.16.16 0 0 1 .06.124.16.16 0 0 1-.06.124.195.195 0 0 1-.125.045.195.195 0 0 1-.126-.045.16.16 0 0 1-.06-.124.16.16 0 0 1 .06-.124.195.195 0 0 1 .126-.045zm.022.167a.034.034 0 0 0-.022-.007.034.034 0 0 0-.022.007H3.11l.002.002a.034.034 0 0 0 .022.007c.009 0 .017-.003.022-.007l.002-.001-.002-.001z"/><path fill="#013668" fill-rule="nonzero" d="M3.424 5.57c.048 0 .093.017.126.045a.16.16 0 0 1 .059.124.16.16 0 0 1-.06.123.195.195 0 0 1-.125.045.195.195 0 0 1-.126-.045.16.16 0 0 1-.059-.123.16.16 0 0 1 .06-.124.195.195 0 0 1 .125-.045zm.022.167a.034.034 0 0 0-.022-.006.034.034 0 0 0-.022.006L3.4 5.74h.002a.034.034 0 0 0 .022.007c.01 0 .017-.002.022-.006l.002-.001-.002-.002z"/><path fill="#013668" fill-rule="nonzero" d="M3.741 5.649c.048 0 .093.017.126.045a.16.16 0 0 1 .059.124.16.16 0 0 1-.06.123.195.195 0 0 1-.125.045.195.195 0 0 1-.126-.045.16.16 0 0 1-.059-.123.16.16 0 0 1 .06-.124.195.195 0 0 1 .125-.045zm.022.167a.034.034 0 0 0-.022-.006.034.034 0 0 0-.022.006l-.002.002h.002a.034.034 0 0 0 .022.007c.01 0 .017-.002.022-.006l.002-.001-.002-.002z"/><path fill="#013668" fill-rule="nonzero" d="M4.059 5.647c.048 0 .093.017.126.045a.16.16 0 0 1 .059.123.16.16 0 0 1-.06.124.195.195 0 0 1-.125.045.195.195 0 0 1-.126-.045.16.16 0 0 1-.06-.124.16.16 0 0 1 .06-.123.195.195 0 0 1 .126-.045zm.022.167a.034.034 0 0 0-.022-.006.034.034 0 0 0-.022.006l-.002.001.002.001a.034.034 0 0 0 .022.007c.01 0 .017-.002.022-.007h.002l-.002-.002z"/><path fill="#013668" fill-rule="nonzero" d="M4.294 5.557c.048 0 .093.017.126.045a.16.16 0 0 1 .059.124.16.16 0 0 1-.06.123.195.195 0 0 1-.125.045.195.195 0 0 1-.126-.045.16.16 0 0 1-.059-.123.16.16 0 0 1 .06-.124.195.195 0 0 1 .125-.045zm.022.168a.034.034 0 0 0-.022-.007.034.034 0 0 0-.022.007H4.27l.002.002a.034.034 0 0 0 .022.006c.01 0 .017-.002.022-.006l.002-.001-.002-.001z"/><path fill="#013668" fill-rule="nonzero" d="M4.484 5.39c.048 0 .092.016.125.044a.16.16 0 0 1 .06.124.16.16 0 0 1-.06.123.195.195 0 0 1-.125.045.195.195 0 0 1-.126-.045.16.16 0 0 1-.06-.123.16.16 0 0 1 .06-.124.195.195 0 0 1 .126-.045zm.022.167a.034.034 0 0 0-.022-.007.034.034 0 0 0-.022.007H4.46l.002.002a.034.034 0 0 0 .022.006c.01 0 .017-.002.022-.006l.002-.001-.002-.001z"/><path fill="#013668" fill-rule="nonzero" d="M4.64 5.126c.048 0 .092.018.125.045a.16.16 0 0 1 .06.124.16.16 0 0 1-.06.124.195.195 0 0 1-.126.045.195.195 0 0 1-.125-.045.16.16 0 0 1-.06-.124.16.16 0 0 1 .06-.124.195.195 0 0 1 .125-.045zm.021.168a.034.034 0 0 0-.022-.007.034.034 0 0 0-.022.007l-.002.001.002.001a.034.034 0 0 0 .022.007c.01 0 .018-.003.022-.007l.002-.001-.002-.001z"/><path fill="#013668" fill-rule="nonzero" d="M4.7 4.854c.048 0 .093.017.126.045a.16.16 0 0 1 .059.124.16.16 0 0 1-.06.123.195.195 0 0 1-.125.045.195.195 0 0 1-.126-.045.16.16 0 0 1-.059-.123.16.16 0 0 1 .06-.124.195.195 0 0 1 .125-.045zm.022.167a.034.034 0 0 0-.022-.006.034.034 0 0 0-.022.006l-.002.002h.002a.034.034 0 0 0 .022.007c.01 0 .017-.002.022-.006l.002-.001-.002-.002z"/><path fill="#013668" fill-rule="nonzero" d="M4.723 4.552c.048 0 .093.018.126.045a.16.16 0 0 1 .059.124.16.16 0 0 1-.06.124.195.195 0 0 1-.125.045.195.195 0 0 1-.126-.045.16.16 0 0 1-.059-.124.16.16 0 0 1 .06-.124.195.195 0 0 1 .125-.045zm.022.168a.034.034 0 0 0-.022-.007.034.034 0 0 0-.022.007l-.002.001.002.001a.034.034 0 0 0 .022.007c.01 0 .017-.003.022-.007l.002-.001-.002-.001z"/><path fill="#013668" fill-rule="nonzero" d="M4.702 4.222c.048 0 .093.017.125.045a.16.16 0 0 1 .06.124.16.16 0 0 1-.06.123.195.195 0 0 1-.125.045.195.195 0 0 1-.126-.045.16.16 0 0 1-.06-.123.16.16 0 0 1 .06-.124.195.195 0 0 1 .126-.045zm.022.168a.034.034 0 0 0-.022-.007.034.034 0 0 0-.022.007h-.002l.002.002a.034.034 0 0 0 .022.007c.01 0 .017-.003.022-.007l.002-.001-.002-.001z"/><path fill="#013668" fill-rule="nonzero" d="M4.621 3.906c.048 0 .093.017.126.045a.16.16 0 0 1 .059.124.16.16 0 0 1-.06.123.195.195 0 0 1-.125.045.195.195 0 0 1-.126-.045.16.16 0 0 1-.059-.123.16.16 0 0 1 .06-.124.195.195 0 0 1 .125-.045zm.022.167a.034.034 0 0 0-.022-.006.034.034 0 0 0-.022.006l-.002.002h.002a.034.034 0 0 0 .022.007c.01 0 .017-.002.022-.006l.002-.001-.002-.002z"/><path fill="#013668" fill-rule="nonzero" d="M4.512 3.59c.048 0 .092.017.125.045a.16.16 0 0 1 .06.123.16.16 0 0 1-.06.124.195.195 0 0 1-.125.045.195.195 0 0 1-.126-.045.16.16 0 0 1-.06-.124.16.16 0 0 1 .06-.123.195.195 0 0 1 .126-.045zm.022.167a.034.034 0 0 0-.022-.006.034.034 0 0 0-.023.006l-.002.001.002.002a.034.034 0 0 0 .023.006c.009 0 .017-.002.022-.006 0-.002.002-.001.002-.002h-.002z"/><path fill="#013668" fill-rule="nonzero" d="M4.379 3.288c.048 0 .093.017.126.045a.16.16 0 0 1 .059.124.16.16 0 0 1-.06.123.195.195 0 0 1-.125.045.195.195 0 0 1-.126-.045.16.16 0 0 1-.059-.123.16.16 0 0 1 .06-.124.195.195 0 0 1 .125-.045zm.022.168a.034.034 0 0 0-.022-.007.034.034 0 0 0-.022.007h-.002l.002.002a.034.034 0 0 0 .022.007c.01 0 .017-.003.022-.007l.002-.001-.002-.001z"/><path fill="#013668" fill-rule="nonzero" d="M4.206 3.006c.048 0 .093.017.126.045a.16.16 0 0 1 .059.124.16.16 0 0 1-.06.123.195.195 0 0 1-.125.045.195.195 0 0 1-.126-.045.16.16 0 0 1-.059-.123.16.16 0 0 1 .06-.124.195.195 0 0 1 .125-.045zm.022.168a.034.034 0 0 0-.022-.007.034.034 0 0 0-.022.007h-.002l.002.002a.034.034 0 0 0 .022.006c.01 0 .017-.002.022-.006l.002-.001-.002-.001z"/><path fill="#013668" fill-rule="nonzero" d="M3.993 2.734c.048 0 .093.017.125.045a.16.16 0 0 1 .06.123.16.16 0 0 1-.06.124.195.195 0 0 1-.125.045.195.195 0 0 1-.126-.045.16.16 0 0 1-.06-.124.16.16 0 0 1 .06-.123.195.195 0 0 1 .126-.045zm.022.167a.034.034 0 0 0-.022-.006.034.034 0 0 0-.022.006l-.002.001.002.001a.034.034 0 0 0 .022.007c.01 0 .017-.003.022-.007h.002L4.015 2.9z"/><path fill="#013668" fill-rule="nonzero" d="M3.74 2.49c.047 0 .092.018.125.045a.16.16 0 0 1 .059.124.16.16 0 0 1-.06.124.195.195 0 0 1-.125.045.195.195 0 0 1-.126-.045.16.16 0 0 1-.059-.124.16.16 0 0 1 .06-.124.195.195 0 0 1 .125-.045zm.021.168a.034.034 0 0 0-.022-.007.034.034 0 0 0-.022.007l-.002.001.002.001a.034.034 0 0 0 .022.007c.01 0 .017-.003.022-.007h.002l-.002-.002zm-.322-.391c.049 0 .093.017.126.045a.16.16 0 0 1 .06.123.16.16 0 0 1-.06.124.195.195 0 0 1-.126.045.195.195 0 0 1-.125-.045.16.16 0 0 1-.06-.124.16.16 0 0 1 .06-.123.195.195 0 0 1 .125-.045zm.022.167a.034.034 0 0 0-.022-.006.034.034 0 0 0-.022.006l-.002.001.002.001a.034.034 0 0 0 .022.007c.01 0 .018-.002.022-.007h.002l-.002-.002z"/><path fill="#013668" fill-rule="nonzero" d="M3.151 2.12c.048 0 .093.018.126.046a.16.16 0 0 1 .059.123.16.16 0 0 1-.06.124.195.195 0 0 1-.125.045.195.195 0 0 1-.126-.045.16.16 0 0 1-.059-.124.16.16 0 0 1 .06-.123.195.195 0 0 1 .125-.045zm.022.168a.034.034 0 0 0-.022-.006.034.034 0 0 0-.022.006l-.002.001.002.001a.034.034 0 0 0 .022.007c.01 0 .017-.002.022-.007h.002l-.002-.002zm-1.036 1.17c.048 0 .092.018.125.045a.16.16 0 0 1 .06.124.16.16 0 0 1-.06.124.195.195 0 0 1-.125.045.195.195 0 0 1-.126-.045.16.16 0 0 1-.06-.124.16.16 0 0 1 .06-.124.195.195 0 0 1 .126-.045zm.022.168a.034.034 0 0 0-.022-.007.034.034 0 0 0-.023.007l-.002.001.002.001a.034.034 0 0 0 .023.007c.009 0 .017-.003.022-.007h.002l-.002-.002z"/><path fill="#013668" fill-rule="nonzero" d="M2.223 3.157c.048 0 .093.017.126.045a.16.16 0 0 1 .059.123.16.16 0 0 1-.06.124.195.195 0 0 1-.125.045.195.195 0 0 1-.126-.045.16.16 0 0 1-.059-.124.16.16 0 0 1 .06-.123.195.195 0 0 1 .125-.045zm.022.167a.034.034 0 0 0-.022-.006.034.034 0 0 0-.022.006l-.002.001.002.002a.034.034 0 0 0 .022.006c.01 0 .017-.002.022-.006l.002-.002h-.002z"/><path fill="#013668" fill-rule="nonzero" d="M2.329 2.857c.048 0 .093.018.126.045a.16.16 0 0 1 .059.124.16.16 0 0 1-.06.124.195.195 0 0 1-.125.045.195.195 0 0 1-.126-.045.16.16 0 0 1-.059-.124.16.16 0 0 1 .06-.124.195.195 0 0 1 .125-.045zm.022.168a.034.034 0 0 0-.022-.007.034.034 0 0 0-.022.007l-.002.001.002.001a.034.034 0 0 0 .022.007c.01 0 .017-.003.022-.007l.002-.001-.002-.001z"/><path fill="#013668" fill-rule="nonzero" d="M2.456 2.583c.048 0 .093.017.126.045a.16.16 0 0 1 .059.123.16.16 0 0 1-.06.124.195.195 0 0 1-.125.045.195.195 0 0 1-.126-.045.16.16 0 0 1-.059-.124.16.16 0 0 1 .06-.123.195.195 0 0 1 .125-.045zm.022.167a.034.034 0 0 0-.022-.007.034.034 0 0 0-.022.007l-.002.001.002.001a.034.034 0 0 0 .022.007c.01 0 .017-.003.022-.007h.002l-.002-.002z"/><path fill="#013668" fill-rule="nonzero" d="M2.606 2.305c.048 0 .092.018.125.045a.16.16 0 0 1 .06.124.16.16 0 0 1-.06.124.195.195 0 0 1-.125.045.195.195 0 0 1-.126-.045.16.16 0 0 1-.06-.124.16.16 0 0 1 .06-.124.195.195 0 0 1 .126-.045zm.022.168a.034.034 0 0 0-.022-.007.034.034 0 0 0-.022.007h-.002l.002.002a.034.034 0 0 0 .022.007c.01 0 .017-.003.022-.007l.002-.001-.002-.001z"/><path fill="#80cbc4" d="M2.867 2.093c.194-.094-.174-.31-.349-.401-.024.126-.015.355.35.401z"/></svg>