<svg width="128" height="128" viewBox="0 0 128 128" fill="none" xmlns="http://www.w3.org/2000/svg">
<path d="M101.379 70.2561C104.769 70.1669 107.442 67.2347 107.349 63.7068C107.256 60.1789 104.433 57.3913 101.043 57.4805C97.6533 57.5697 94.9805 60.5019 95.0733 64.0298C95.1661 67.5576 97.9894 70.3453 101.379 70.2561Z" fill="#2E5477"/>
<path d="M100.774 68.6263C103.667 68.5502 105.948 66.0493 105.869 63.0404C105.79 60.0314 103.381 57.6539 100.488 57.7301C97.5947 57.8062 95.3137 60.3071 95.3928 63.316C95.472 66.3249 97.8814 68.7024 100.774 68.6263Z" fill="#3388BB"/>
<path d="M101.06 60.5C101.48 62.06 99.9201 63.35 98.6201 63.21C97.4401 63.08 96.3401 61.8 97.1701 60.25C98.2601 58.24 100.66 59.02 101.06 60.5Z" fill="#009FFF"/>
<path d="M111.153 62.9488C114.507 62.7776 117.081 59.8085 116.903 56.3171C116.725 52.8257 113.862 50.1341 110.508 50.3052C107.155 50.4764 104.581 53.4455 104.759 56.9369C104.937 60.4284 107.8 63.1199 111.153 62.9488Z" fill="#2E5477"/>
<path d="M110.407 61.4301C113.269 61.284 115.466 58.7465 115.314 55.7626C115.162 52.7786 112.718 50.478 109.855 50.6242C106.992 50.7703 104.795 53.3077 104.948 56.2917C105.1 59.2757 107.544 61.5762 110.407 61.4301Z" fill="#3388BB"/>
<path d="M110.11 53.12C110.89 54.45 109.64 56.09 108.31 56.32C107.11 56.52 105.71 55.63 106.18 53.97C106.79 51.79 109.36 51.85 110.11 53.12V53.12Z" fill="#009FFF"/>
<path d="M118.01 41.1C121.318 41.1 124 38.3063 124 34.86C124 31.4137 121.318 28.62 118.01 28.62C114.702 28.62 112.02 31.4137 112.02 34.86C112.02 38.3063 114.702 41.1 118.01 41.1Z" fill="#2E5477"/>
<path d="M117.19 39.82C120.012 39.82 122.3 37.4381 122.3 34.5C122.3 31.5618 120.012 29.18 117.19 29.18C114.368 29.18 112.08 31.5618 112.08 34.5C112.08 37.4381 114.368 39.82 117.19 39.82Z" fill="#3388BB"/>
<path d="M117.29 32.43C117.75 33.98 116.21 35.31 114.91 35.2C113.73 35.1 112.6 33.84 113.4 32.28C114.43 30.23 116.85 30.96 117.29 32.43Z" fill="#009FFF"/>
<path d="M112.86 30.22C116.146 30.22 118.81 27.4442 118.81 24.02C118.81 20.5958 116.146 17.82 112.86 17.82C109.574 17.82 106.91 20.5958 106.91 24.02C106.91 27.4442 109.574 30.22 112.86 30.22Z" fill="#2E5477"/>
<path d="M112.3 28.77C115.106 28.77 117.38 26.4016 117.38 23.48C117.38 20.5584 115.106 18.19 112.3 18.19C109.495 18.19 107.22 20.5584 107.22 23.48C107.22 26.4016 109.495 28.77 112.3 28.77Z" fill="#3388BB"/>
<path d="M112.33 21.78C112.89 23.38 111.47 24.83 110.18 24.77C109.01 24.71 107.81 23.45 108.49 21.78C109.37 19.61 111.8 20.27 112.33 21.78Z" fill="#009FFF"/>
<path d="M103.47 22.7C106.739 22.7 109.39 19.9376 109.39 16.53C109.39 13.1224 106.739 10.36 103.47 10.36C100.2 10.36 97.5498 13.1224 97.5498 16.53C97.5498 19.9376 100.2 22.7 103.47 22.7Z" fill="#2E5477"/>
<path d="M102.95 21.29C105.739 21.29 108 18.935 108 16.03C108 13.125 105.739 10.77 102.95 10.77C100.161 10.77 97.8999 13.125 97.8999 16.03C97.8999 18.935 100.161 21.29 102.95 21.29Z" fill="#3388BB"/>
<path d="M102.72 13.94C103.44 15.44 102.15 17.03 100.84 17.13C99.6501 17.21 98.3101 16.12 98.8301 14.4C99.5101 12.17 102.04 12.52 102.72 13.94V13.94Z" fill="#009FFF"/>
<path d="M92.6102 18.48C95.8632 18.48 98.5002 15.731 98.5002 12.34C98.5002 8.94898 95.8632 6.20001 92.6102 6.20001C89.3573 6.20001 86.7202 8.94898 86.7202 12.34C86.7202 15.731 89.3573 18.48 92.6102 18.48Z" fill="#2E5477"/>
<path d="M92.1199 17.02C94.8978 17.02 97.1498 14.674 97.1498 11.78C97.1498 8.88604 94.8978 6.54001 92.1199 6.54001C89.3419 6.54001 87.0898 8.88604 87.0898 11.78C87.0898 14.674 89.3419 17.02 92.1199 17.02Z" fill="#3388BB"/>
<path d="M92.08 9.96C92.36 11.55 91.26 12.73 89.7 12.73C88.43 12.73 87.41 10.97 88.37 9.5C89.53 7.71 91.78 8.27 92.08 9.96Z" fill="#009FFF"/>
<path d="M80.9901 16.9C84.232 16.9 86.8601 14.16 86.8601 10.78C86.8601 7.40002 84.232 4.66 80.9901 4.66C77.7482 4.66 75.1201 7.40002 75.1201 10.78C75.1201 14.16 77.7482 16.9 80.9901 16.9Z" fill="#2E5477"/>
<path d="M80.1702 15.39C82.9371 15.39 85.1802 13.0529 85.1802 10.17C85.1802 7.28709 82.9371 4.95001 80.1702 4.95001C77.4032 4.95001 75.1602 7.28709 75.1602 10.17C75.1602 13.0529 77.4032 15.39 80.1702 15.39Z" fill="#3388BB"/>
<path d="M80.2998 8.43999C80.7698 10.05 79.2498 11.42 77.9498 11.29C76.7698 11.17 75.6398 9.85999 76.4198 8.24999C77.4398 6.14999 79.8598 6.91999 80.2998 8.43999Z" fill="#009FFF"/>
<path d="M69.2902 16.85C72.5266 16.85 75.1502 14.1189 75.1502 10.75C75.1502 7.38106 72.5266 4.64999 69.2902 4.64999C66.0538 4.64999 63.4302 7.38106 63.4302 10.75C63.4302 14.1189 66.0538 16.85 69.2902 16.85Z" fill="#2E5477"/>
<path d="M68.8501 15.26C71.6115 15.26 73.8501 12.9274 73.8501 10.05C73.8501 7.17259 71.6115 4.84 68.8501 4.84C66.0887 4.84 63.8501 7.17259 63.8501 10.05C63.8501 12.9274 66.0887 15.26 68.8501 15.26Z" fill="#3388BB"/>
<path d="M68.6599 8.08001C69.3399 9.54001 68.0199 11.09 66.7199 11.17C65.5299 11.24 64.2299 10.17 64.7899 8.51001C65.5099 6.34001 68.0199 6.69001 68.6599 8.08001Z" fill="#009FFF"/>
<path d="M57.9999 18.3C61.2308 18.3 63.8499 15.5734 63.8499 12.21C63.8499 8.84658 61.2308 6.12 57.9999 6.12C54.769 6.12 52.1499 8.84658 52.1499 12.21C52.1499 15.5734 54.769 18.3 57.9999 18.3Z" fill="#2E5477"/>
<path d="M57.26 16.85C60.0159 16.85 62.25 14.5219 62.25 11.65C62.25 8.77813 60.0159 6.45001 57.26 6.45001C54.5041 6.45001 52.27 8.77813 52.27 11.65C52.27 14.5219 54.5041 16.85 57.26 16.85Z" fill="#3388BB"/>
<path d="M57.4799 9.68999C57.9399 11.24 56.3999 12.57 55.0999 12.46C53.9199 12.36 52.7899 11.1 53.5899 9.53999C54.6299 7.48999 57.0499 8.21999 57.4799 9.68999Z" fill="#009FFF"/>
<path d="M46.9101 20.58C50.1409 20.58 52.7601 17.8534 52.7601 14.49C52.7601 11.1266 50.1409 8.39999 46.9101 8.39999C43.6792 8.39999 41.0601 11.1266 41.0601 14.49C41.0601 17.8534 43.6792 20.58 46.9101 20.58Z" fill="#2E5477"/>
<path d="M46.4802 18.85C49.2361 18.85 51.4702 16.5219 51.4702 13.65C51.4702 10.7781 49.2361 8.44998 46.4802 8.44998C43.7243 8.44998 41.4902 10.7781 41.4902 13.65C41.4902 16.5219 43.7243 18.85 46.4802 18.85Z" fill="#3388BB"/>
<path d="M42.5403 13.31C42.1803 11.56 43.9203 10.49 45.1403 10.59C46.2603 10.68 47.3003 12.14 46.3103 13.67C44.9503 15.76 42.8503 14.84 42.5403 13.31Z" fill="#009FFF"/>
<path d="M36.3798 25.36C39.6107 25.36 42.2298 22.6334 42.2298 19.27C42.2298 15.9066 39.6107 13.18 36.3798 13.18C33.1489 13.18 30.5298 15.9066 30.5298 19.27C30.5298 22.6334 33.1489 25.36 36.3798 25.36Z" fill="#2E5477"/>
<path d="M35.8298 23.68C38.5857 23.68 40.8198 21.3519 40.8198 18.48C40.8198 15.6081 38.5857 13.28 35.8298 13.28C33.0739 13.28 30.8398 15.6081 30.8398 18.48C30.8398 21.3519 33.0739 23.68 35.8298 23.68Z" fill="#3388BB"/>
<path d="M36.3699 16.83C36.4499 18.5 34.7899 19.56 33.4999 19.2C32.3799 18.89 31.3999 17.41 32.4699 15.99C33.7999 14.22 36.2999 15.25 36.3699 16.83Z" fill="#009FFF"/>
<path d="M26.9699 32.52C30.2063 32.52 32.8299 29.7889 32.8299 26.42C32.8299 23.0511 30.2063 20.32 26.9699 20.32C23.7335 20.32 21.1099 23.0511 21.1099 26.42C21.1099 29.7889 23.7335 32.52 26.9699 32.52Z" fill="#2E5477"/>
<path d="M26.52 31C29.2814 31 31.52 28.6674 31.52 25.79C31.52 22.9126 29.2814 20.58 26.52 20.58C23.7586 20.58 21.52 22.9126 21.52 25.79C21.52 28.6674 23.7586 31 26.52 31Z" fill="#3388BB"/>
<path d="M28.0397 23.12C28.2997 24.78 26.2997 25.66 24.9597 25.49C23.7197 25.34 22.6897 23.91 23.9097 22.54C25.5597 20.68 27.8097 21.67 28.0397 23.12Z" fill="#009FFF"/>
<path d="M21.0933 41.4265C24.201 40.5034 25.9401 37.1285 24.9776 33.8884C24.0152 30.6483 20.7156 28.7701 17.6079 29.6933C14.5002 30.6164 12.7612 33.9913 13.7236 37.2314C14.6861 40.4714 17.9856 42.3497 21.0933 41.4265Z" fill="#2E5477"/>
<path d="M20.3555 39.7658C23.0079 38.9779 24.4926 36.0989 23.6717 33.3353C22.8507 30.5717 20.0351 28.9701 17.3827 29.758C14.7303 30.5459 13.2456 33.4249 14.0665 36.1885C14.8874 38.9521 17.7031 40.5537 20.3555 39.7658Z" fill="#3388BB"/>
<path d="M20.1598 32.37C20.2398 33.26 19.7098 34.14 18.9898 34.63C18.2898 35.11 17.3698 35.21 16.5698 34.96C16.2906 34.8325 16.0436 34.6438 15.8472 34.408C15.6507 34.1721 15.5098 33.8951 15.4349 33.5974C15.36 33.2998 15.353 32.989 15.4145 32.6883C15.4759 32.3875 15.6042 32.1045 15.7898 31.86C16.8598 30.23 19.9398 29.93 20.1598 32.37V32.37Z" fill="#009FFF"/>
<path d="M15.5237 52.0505C18.6491 51.1487 20.4206 47.7763 19.4805 44.5182C18.5403 41.2602 15.2445 39.3501 12.1191 40.2519C8.99363 41.1538 7.22211 44.5261 8.16226 47.7842C9.10242 51.0423 12.3982 52.9524 15.5237 52.0505Z" fill="#2E5477"/>
<path d="M14.8233 50.3765C17.4924 49.6063 19.0057 46.7279 18.2034 43.9474C17.401 41.1669 14.5869 39.5372 11.9178 40.3073C9.24869 41.0775 7.73539 43.956 8.53774 46.7365C9.34009 49.517 12.1542 51.1467 14.8233 50.3765Z" fill="#3388BB"/>
<path d="M15.1701 43.56C14.9701 44.43 14.1901 45.1 13.3501 45.34C12.5401 45.57 11.6301 45.39 10.9501 44.9C10.4501 44.54 9.64012 42.92 11.1701 41.71C12.7001 40.5 15.7201 41.17 15.1701 43.56V43.56Z" fill="#009FFF"/>
<path d="M11.6287 63.7785C14.8488 63.2125 16.981 60.0329 16.391 56.6767C15.8011 53.3206 12.7124 51.0588 9.49222 51.6249C6.27207 52.1909 4.13988 55.3705 4.72985 58.7266C5.31981 62.0828 8.40853 64.3446 11.6287 63.7785Z" fill="#2E5477"/>
<path d="M11.0915 62.1019C13.8384 61.619 15.6575 58.9082 15.1545 56.047C14.6516 53.1859 12.017 51.2579 9.27012 51.7408C6.52321 52.2236 4.70411 54.9345 5.20706 57.7956C5.71002 60.6568 8.34456 62.5848 11.0915 62.1019Z" fill="#3388BB"/>
<path d="M12.4696 55.13C12.0996 55.94 11.1996 56.44 10.3296 56.51C9.48963 56.57 8.63963 56.21 8.06963 55.59C7.65963 55.14 7.18963 53.38 8.92963 52.51C10.6696 51.64 13.4896 52.9 12.4696 55.13V55.13Z" fill="#009FFF"/>
<path d="M9.95 76.3C13.2361 76.3 15.9 73.5242 15.9 70.1C15.9 66.6758 13.2361 63.9 9.95 63.9C6.66391 63.9 4 66.6758 4 70.1C4 73.5242 6.66391 76.3 9.95 76.3Z" fill="#2E5477"/>
<path d="M9.8798 74.39C12.6854 74.39 14.9598 72.0216 14.9598 69.1C14.9598 66.1784 12.6854 63.81 9.8798 63.81C7.0742 63.81 4.7998 66.1784 4.7998 69.1C4.7998 72.0216 7.0742 74.39 9.8798 74.39Z" fill="#3388BB"/>
<path d="M12.2002 67.4C11.9302 68.26 11.1102 68.86 10.2502 69.03C9.42015 69.19 8.53015 68.93 7.88015 68.39C7.39015 67.98 6.75015 66.23 8.41015 65.07C9.97015 63.96 12.9502 64.98 12.2002 67.4Z" fill="#009FFF"/>
<path d="M12.3899 88.21C15.6981 88.21 18.3799 85.4163 18.3799 81.97C18.3799 78.5238 15.6981 75.73 12.3899 75.73C9.08172 75.73 6.3999 78.5238 6.3999 81.97C6.3999 85.4163 9.08172 88.21 12.3899 88.21Z" fill="#2E5477"/>
<path d="M12.5299 86.33C15.3521 86.33 17.6399 83.9482 17.6399 81.01C17.6399 78.0718 15.3521 75.69 12.5299 75.69C9.70775 75.69 7.41992 78.0718 7.41992 81.01C7.41992 83.9482 9.70775 86.33 12.5299 86.33Z" fill="#3388BB"/>
<path d="M14.4399 78.62C14.1499 80.03 13.0399 80.33 12.1799 80.53C10.0799 81.02 8.20994 79.22 10.0799 77.4C11.2099 76.29 14.9699 76.04 14.4399 78.62V78.62Z" fill="#009FFF"/>
<path d="M18.32 98C21.6503 98 24.35 95.1883 24.35 91.72C24.35 88.2517 21.6503 85.44 18.32 85.44C14.9898 85.44 12.29 88.2517 12.29 91.72C12.29 95.1883 14.9898 98 18.32 98Z" fill="#2E5477"/>
<path d="M18.3902 96.16C21.2345 96.16 23.5402 93.7602 23.5402 90.8C23.5402 87.8398 21.2345 85.44 18.3902 85.44C15.546 85.44 13.2402 87.8398 13.2402 90.8C13.2402 93.7602 15.546 96.16 18.3902 96.16Z" fill="#3388BB"/>
<path d="M20.8001 88.6C20.7201 89.5 19.9701 90.32 19.1101 90.5C17.6501 90.81 14.9101 90.18 16.5801 87.35C17.5401 85.71 21.0601 85.68 20.8001 88.6V88.6Z" fill="#009FFF"/>
<path d="M28.2802 105.17C31.6381 105.17 34.3602 102.336 34.3602 98.84C34.3602 95.344 31.6381 92.51 28.2802 92.51C24.9223 92.51 22.2002 95.344 22.2002 98.84C22.2002 102.336 24.9223 105.17 28.2802 105.17Z" fill="#2E5477"/>
<path d="M28.1104 103.28C30.9768 103.28 33.3004 100.858 33.3004 97.87C33.3004 94.8821 30.9768 92.46 28.1104 92.46C25.2441 92.46 22.9204 94.8821 22.9204 97.87C22.9204 100.858 25.2441 103.28 28.1104 103.28Z" fill="#3388BB"/>
<path d="M29.9302 95.63C29.8002 96.52 29.0702 97.21 28.2502 97.54C27.0402 98.03 23.9902 97.57 25.5102 94.44C26.3202 92.77 30.3302 92.86 29.9302 95.63Z" fill="#009FFF"/>
<path d="M39.6102 107.51C43.0012 107.51 45.7502 104.649 45.7502 101.12C45.7502 97.5909 43.0012 94.73 39.6102 94.73C36.2192 94.73 33.4702 97.5909 33.4702 101.12C33.4702 104.649 36.2192 107.51 39.6102 107.51Z" fill="#2E5477"/>
<path d="M39.5003 105.58C42.3942 105.58 44.7403 103.14 44.7403 100.13C44.7403 97.12 42.3942 94.68 39.5003 94.68C36.6063 94.68 34.2603 97.12 34.2603 100.13C34.2603 103.14 36.6063 105.58 39.5003 105.58Z" fill="#3388BB"/>
<path d="M41.4703 97.55C41.3503 98.44 40.8903 98.89 39.8103 99.47C38.1703 100.36 35.4803 98.84 36.8803 96.39C37.8403 94.72 41.8503 94.7 41.4703 97.55Z" fill="#009FFF"/>
<path d="M51.0601 105.34C54.4788 105.34 57.2501 102.452 57.2501 98.89C57.2501 95.3278 54.4788 92.44 51.0601 92.44C47.6415 92.44 44.8701 95.3278 44.8701 98.89C44.8701 102.452 47.6415 105.34 51.0601 105.34Z" fill="#2E5477"/>
<path d="M50.7602 103.43C53.6818 103.43 56.0502 100.963 56.0502 97.92C56.0502 94.8769 53.6818 92.41 50.7602 92.41C47.8386 92.41 45.4702 94.8769 45.4702 97.92C45.4702 100.963 47.8386 103.43 50.7602 103.43Z" fill="#3388BB"/>
<path d="M53.1303 95.85C53.0203 96.75 52.3103 97.5 51.4803 97.78C50.6603 98.06 49.7303 97.91 48.9803 97.47C48.3403 97.1 47.8103 96.44 47.8003 95.68C47.8003 95.27 48.0803 94.79 48.3303 94.78C49.3803 92.83 53.5003 92.89 53.1303 95.85V95.85Z" fill="#009FFF"/>
<path d="M63.0198 102.25C66.4771 102.25 69.2798 99.3309 69.2798 95.73C69.2798 92.1291 66.4771 89.21 63.0198 89.21C59.5625 89.21 56.7598 92.1291 56.7598 95.73C56.7598 99.3309 59.5625 102.25 63.0198 102.25Z" fill="#2E5477"/>
<path d="M62.5998 100.52C65.549 100.52 67.9398 98.0307 67.9398 94.96C67.9398 91.8893 65.549 89.4 62.5998 89.4C59.6506 89.4 57.2598 91.8893 57.2598 94.96C57.2598 98.0307 59.6506 100.52 62.5998 100.52Z" fill="#3388BB"/>
<path d="M64.2596 92.59C64.2496 93.5 63.6396 94.33 62.8496 94.7C62.0596 95.07 61.1196 95.02 60.3096 94.68C59.6096 94.38 58.8896 93.21 59.1296 92.3C59.7996 89.78 64.2796 89.52 64.2596 92.59V92.59Z" fill="#009FFF"/>
<path d="M74.83 102.12C78.326 102.12 81.16 99.1696 81.16 95.53C81.16 91.8904 78.326 88.94 74.83 88.94C71.334 88.94 68.5 91.8904 68.5 95.53C68.5 99.1696 71.334 102.12 74.83 102.12Z" fill="#2E5477"/>
<path d="M74.4498 100.21C77.4321 100.21 79.8498 97.6894 79.8498 94.58C79.8498 91.4707 77.4321 88.95 74.4498 88.95C71.4675 88.95 69.0498 91.4707 69.0498 94.58C69.0498 97.6894 71.4675 100.21 74.4498 100.21Z" fill="#3388BB"/>
<path d="M76.5002 92.39C76.3502 93.29 75.7102 94.06 74.8802 94.35C74.0502 94.64 73.0502 94.76 72.0702 94.07C71.4302 93.62 70.7902 92.49 71.3202 91.46C72.4202 89.28 76.9802 89.49 76.5002 92.39Z" fill="#009FFF"/>
<path d="M87.0603 88.94C90.5176 88.94 93.3203 86.0209 93.3203 82.42C93.3203 78.8191 90.5176 75.9 87.0603 75.9C83.603 75.9 80.8003 78.8191 80.8003 82.42C80.8003 86.0209 83.603 88.94 87.0603 88.94Z" fill="#2E5477"/>
<path d="M91.4602 83.5085C92.4539 80.603 90.9973 77.474 88.2068 76.5196C85.4163 75.5652 82.3486 77.1469 81.3549 80.0524C80.3612 82.9578 81.8178 86.0869 84.6083 87.0412C87.3988 87.9956 90.4666 86.4139 91.4602 83.5085Z" fill="#3388BB"/>
<path d="M86.7099 80.38C86.3499 82.15 84.3999 82.75 83.3499 82.03C82.3999 81.37 82.0599 79.58 83.4899 78.39C85.3599 76.84 87.0499 78.71 86.7099 80.38Z" fill="#009FFF"/>
<path d="M117.83 53.07C121.16 53.07 123.86 50.2584 123.86 46.79C123.86 43.3217 121.16 40.51 117.83 40.51C114.5 40.51 111.8 43.3217 111.8 46.79C111.8 50.2584 114.5 53.07 117.83 53.07Z" fill="#2E5477"/>
<path d="M117.19 51.86C120.034 51.86 122.34 49.4603 122.34 46.5C122.34 43.5398 120.034 41.14 117.19 41.14C114.346 41.14 112.04 43.5398 112.04 46.5C112.04 49.4603 114.346 51.86 117.19 51.86Z" fill="#3388BB"/>
<path d="M116.94 44.2C117.4 45.75 116.03 47.47 114.73 47.36C113.55 47.26 112.42 46 113.22 44.44C114.26 42.4 116.5 42.73 116.94 44.2V44.2Z" fill="#009FFF"/>
<path d="M86.6401 101.26C90.136 101.26 92.9701 98.3096 92.9701 94.67C92.9701 91.0305 90.136 88.08 86.6401 88.08C83.1441 88.08 80.3101 91.0305 80.3101 94.67C80.3101 98.3096 83.1441 101.26 86.6401 101.26Z" fill="#2E5477"/>
<path d="M86.0602 99.33C89.0425 99.33 91.4602 96.8094 91.4602 93.7C91.4602 90.5906 89.0425 88.07 86.0602 88.07C83.0778 88.07 80.6602 90.5906 80.6602 93.7C80.6602 96.8094 83.0778 99.33 86.0602 99.33Z" fill="#3388BB"/>
<path d="M86.9699 90.73C87.2699 91.57 86.9799 92.59 86.3599 93.24C85.7399 93.89 84.8299 94.21 83.9599 94.21C83.1799 94.21 82.1099 93.59 82.1699 92.06C82.2499 89.6 85.9199 87.79 86.9699 90.73V90.73Z" fill="#009FFF"/>
<path d="M82.48 97.94C82.95 98.45 84.23 98.82 84.87 98.57C86.14 98.07 86.1 96.9 88.05 95.73C89.3 94.98 89.83 95.15 90.87 94.67C91.62 94.32 91.44 93.38 91.38 92.77C91.38 92.77 93.73 96.43 89.16 99.17C84.63 101.88 82.48 97.94 82.48 97.94V97.94Z" fill="#2E5477"/>
<path d="M92.6002 78.21C96.0188 78.21 98.7902 75.3222 98.7902 71.76C98.7902 68.1978 96.0188 65.31 92.6002 65.31C89.1815 65.31 86.4102 68.1978 86.4102 71.76C86.4102 75.3222 89.1815 78.21 92.6002 78.21Z" fill="#2E5477"/>
<path d="M91.75 76.81C94.6715 76.81 97.04 74.3431 97.04 71.3C97.04 68.2569 94.6715 65.79 91.75 65.79C88.8284 65.79 86.46 68.2569 86.46 71.3C86.46 74.3431 88.8284 76.81 91.75 76.81Z" fill="#3388BB"/>
<path d="M92.16 68.53C92.42 70.12 91.09 71.29 89.78 71.3C88.49 71.31 87.27 69.82 88.27 68.38C89.66 66.36 91.92 67.01 92.16 68.53Z" fill="#009FFF"/>
<path d="M91.1899 95.91C88.7799 95.65 86.6299 97.89 86.3999 100.2C85.9299 104.93 91.1799 106.61 91.1799 106.61C91.6299 106.82 92.7899 107.36 94.0999 109.44C98.6399 116.68 105.93 122.4 114.43 123.32C117.19 123.62 123.78 108.94 118.58 107.01C117.02 106.43 115.29 106.69 113.65 106.9C110.63 107.29 107.56 107.5 104.55 107.03C102.32 106.68 97.4799 104.43 96.3899 102.13C96.3899 102.12 96.1199 96.44 91.1899 95.91V95.91Z" fill="#009FFF"/>
<path d="M94.4399 103.33C98.0999 105.79 102.81 106.6 107.08 105.52C111.12 104.49 115.01 101.84 119.09 102.69" stroke="#009FFF" stroke-width="2.523" stroke-miterlimit="10" stroke-linecap="round"/>
<path d="M92.96 106.96C93.17 111.52 93.82 116.25 97.46 119.01C100.81 121.56 105.34 122.35 109.44 120.34" stroke="#009FFF" stroke-width="2.523" stroke-miterlimit="10" stroke-linecap="round"/>
<path d="M116.62 107.37C115.07 108.24 115.55 112.71 115.47 113.65C115.19 116.98 112.82 116.05 111.83 119.06C111.31 120.63 111.54 123.1 113.41 123.3C119.83 123.99 120.96 116.98 121.12 115.38C121.79 108.94 119.03 106.02 116.62 107.37V107.37Z" fill="#2E5477"/>
<path d="M115.59 114.36C108.68 114.36 101.73 112.1 96.9698 107.32C95.0298 105.37 96.1798 104.75 96.6898 105.21C102.24 110.19 110.37 112.9 118 112.19L118.19 114.24C117.34 114.33 116.47 114.36 115.59 114.36Z" fill="#3388BB"/>
<path d="M115.71 120.34C110.7 119.52 104.79 116.93 101.87 114.53C100.04 113.03 99.71 112.08 99.71 112.08C103.92 115.5 110.53 117.74 115.88 118.61L115.71 120.34Z" fill="#2E5477"/>
<path d="M91.8298 106.96C91.8298 106.96 92.2998 105.74 93.9398 104.41C95.8898 102.82 96.8098 102.78 96.8098 102.78C96.5198 102.33 96.4098 100.66 95.6898 99.32C95.6898 99.32 95.8898 101.4 93.1098 103.39C91.2898 104.69 88.0498 104.67 88.0498 104.67C89.4198 106.09 91.8298 106.96 91.8298 106.96V106.96Z" fill="#3388BB"/>
</svg>
