<svg width="34" height="47" viewBox="0 0 34 47" fill="none" xmlns="http://www.w3.org/2000/svg">
<path d="M17.7073 0.29175C17.6153 0.19975 17.5042 0.12675 17.3822 0.07575C17.1372 -0.02525 16.8622 -0.02525 16.6182 0.07575C16.4962 0.12675 16.3852 0.19975 16.2932 0.29175L0.29325 16.2917C-0.09775 16.6827 -0.09775 17.3148 0.29325 17.7058C0.48825 17.9008 0.74425 17.9988 1.00025 17.9988C1.25625 17.9988 1.51225 17.9008 1.70725 17.7058L16.0002 3.41275V45.9987C16.0002 46.5507 16.4482 46.9987 17.0002 46.9987C17.5522 46.9987 18.0002 46.5507 18.0002 45.9987V3.41275L32.2932 17.7058C32.4882 17.9008 32.7442 17.9988 33.0002 17.9988C33.2562 17.9988 33.5122 17.9008 33.7072 17.7058C34.0982 17.3148 34.0982 16.6827 33.7072 16.2917L17.7073 0.29175Z" fill="white"/>
</svg>
