<svg xmlns="http://www.w3.org/2000/svg" data-name="Layer 1" viewBox="0 0 32 32"><path fill="#ffdaa7" d="m13.666 6.818-1.517 2.907 3.236 1.191.98-1.981"/><path fill="#2c2b2d" d="M15.385 11.416a.487.487 0 0 1-.173-.031l-3.236-1.192a.5.5 0 0 1-.27-.7l1.517-2.906a.5.5 0 0 1 .886.463l-1.255 2.402 2.282.84.781-1.578a.5.5 0 1 1 .896.443l-.98 1.98a.5.5 0 0 1-.448.279Z"/><path fill="#ffdaa7" d="m15.167 8.94-.476-.253A3.224 3.224 0 0 1 13.364 4.3l.964-1.773a3.283 3.283 0 0 1 4.427-1.316l.476.254a3.224 3.224 0 0 1 1.327 4.387l-.964 1.774a3.283 3.283 0 0 1-4.427 1.315Z"/><path fill="#2c2b2d" d="M16.71 9.827a3.775 3.775 0 0 1-1.778-.445l-.476-.254a3.722 3.722 0 0 1-1.531-5.067l.964-1.773A3.791 3.791 0 0 1 18.99.771l.477.253a3.723 3.723 0 0 1 1.531 5.067l-.965 1.774a3.774 3.774 0 0 1-3.322 1.962Zm.498-8.503a2.773 2.773 0 0 0-2.44 1.44l-.964 1.774a2.72 2.72 0 0 0 1.123 3.707l.475.254a2.784 2.784 0 0 0 3.752-1.111l.965-1.775a2.696 2.696 0 0 0 .216-2.076 2.723 2.723 0 0 0-1.339-1.63l-.476-.254a2.779 2.779 0 0 0-1.312-.329Z"/><path fill="#e0e0e2" d="m14.46 2.357 6.048 3.587.375-1.147a3.044 3.044 0 0 0-1.266-3.513l-.466-.297a3.106 3.106 0 0 0-4.02.589Z"/><path fill="#2c2b2d" d="M20.508 6.444a.494.494 0 0 1-.255-.07l-6.048-3.588a.5.5 0 0 1-.124-.756l.671-.781A3.62 3.62 0 0 1 19.42.564l.467.3a3.546 3.546 0 0 1 1.471 4.09L20.983 6.1a.502.502 0 0 1-.475.344Zm-5.28-4.214 4.999 2.966.18-.553a2.546 2.546 0 0 0-1.058-2.937l-.467-.299a2.619 2.619 0 0 0-3.372.494Z"/><path fill="#58565d" d="M14.426 2.326 16.96 3.84a20.19 20.19 0 0 0-1.78 1.06 18.45 18.45 0 0 0-2.03 1.58l-.1.02a3.16 3.16 0 0 1 .31-2.2l.97-1.77Z"/><path fill="#2c2b2d" d="M13.05 7a.5.5 0 0 1-.488-.392 3.67 3.67 0 0 1 .359-2.546l1.052-1.948a.5.5 0 0 1 .71-.218l2.534 1.514a.5.5 0 0 1-.024.872 19.632 19.632 0 0 0-1.736 1.034 17.539 17.539 0 0 0-1.973 1.537.501.501 0 0 1-.238.119l-.1.02A.537.537 0 0 1 13.05 7Zm1.576-3.972-.827 1.512a2.679 2.679 0 0 0-.309.991c.456-.373.922-.719 1.411-1.046.347-.231.7-.452 1.058-.66Z"/><path fill="#fff" d="M20.494 31.5H5.917v-3.86h1.472l2.165-1.02 5.4 1.02 3.784-3.397 3.341 3.812a2.079 2.079 0 0 1-1.585 3.445Z"/><path fill="#2c2b2d" d="M20.494 32H5.917a.5.5 0 0 1-.5-.5v-3.86a.5.5 0 0 1 .5-.5h1.36l2.064-.971a.481.481 0 0 1 .305-.04l5.157.975 3.6-3.233a.47.47 0 0 1 .365-.127.5.5 0 0 1 .345.17l3.342 3.813a2.538 2.538 0 0 1 .41 2.75A2.571 2.571 0 0 1 20.495 32ZM6.417 31h14.077a1.586 1.586 0 0 0 1.46-.935 1.53 1.53 0 0 0-.25-1.68l-3.009-3.432-3.408 3.06a.497.497 0 0 1-.427.119l-5.24-.99-2.018.95a.502.502 0 0 1-.213.049h-.972Z"/><path fill="#fff" d="M12.088 9.708a2.674 2.674 0 0 1 .842.037 5.338 5.338 0 0 1 1.183.307 5.423 5.423 0 0 1 1.123.59c1.054.723 1.34 2.097 1.583 3.27l.023.115a12.489 12.489 0 0 1 .205 1.56c.093 1.364-.522 2.253-.932 3.474-.499 1.488.664 2.903 1.791 3.75 1.513 1.136 3.315 1.954 4.142 3.756.142.31.62 1.588-1.522 1.69-4.777.226-4.525.42-5.526.332-2.301-.203-2.692-.923-5.31-1.009a16.438 16.438 0 0 0-2.301.06c-.147-.84-.252-1.64-.398-2.481a20.398 20.398 0 0 1-.285-2.514 16.942 16.942 0 0 1 .048-2.373 15.53 15.53 0 0 1 .375-2.25 15.93 15.93 0 0 1 .693-2.157 18.233 18.233 0 0 1 1.006-2.096 27.553 27.553 0 0 1 2.075-3.172 2.696 2.696 0 0 1 .837-.766 1.159 1.159 0 0 1 .348-.123Z"/><path fill="#2c2b2d" d="M15.429 29.111a5.16 5.16 0 0 1-.473-.023 10.722 10.722 0 0 1-2.45-.51 9.351 9.351 0 0 0-2.833-.498 16.173 16.173 0 0 0-2.223.057.492.492 0 0 1-.554-.41c-.074-.423-.137-.836-.2-1.248a63.03 63.03 0 0 0-.198-1.234 20.964 20.964 0 0 1-.29-2.575 17.293 17.293 0 0 1 .048-2.443 15.999 15.999 0 0 1 .388-2.324 16.383 16.383 0 0 1 .714-2.223 18.86 18.86 0 0 1 1.033-2.154 27.956 27.956 0 0 1 2.114-3.231 3.131 3.131 0 0 1 .997-.903A1.65 1.65 0 0 1 12 9.216a2.737 2.737 0 0 1 .927.024 5.913 5.913 0 0 1 2.59.989c1.227.841 1.54 2.36 1.79 3.582l.027.127a12.95 12.95 0 0 1 .212 1.616 5.772 5.772 0 0 1-.604 2.749c-.12.292-.244.591-.353.917-.491 1.466 1.114 2.812 1.617 3.19.355.267.724.514 1.093.762a8.044 8.044 0 0 1 3.203 3.187 1.636 1.636 0 0 1-.004 1.545 2.248 2.248 0 0 1-1.948.852c-2.56.12-3.648.231-4.297.297a7.967 7.967 0 0 1-.824.058Zm-6.507-2.044c.252 0 .515.004.784.013a10.352 10.352 0 0 1 3.094.541 9.722 9.722 0 0 0 2.244.47 4.589 4.589 0 0 0 1.108-.033c.66-.067 1.764-.178 4.35-.3.599-.029 1.015-.165 1.142-.373a.748.748 0 0 0-.05-.609 7.193 7.193 0 0 0-2.852-2.774 25.622 25.622 0 0 1-1.137-.792c-1.705-1.28-2.439-2.89-1.963-4.309.116-.346.248-.668.377-.98a4.844 4.844 0 0 0 .529-2.3 11.838 11.838 0 0 0-.196-1.498l-.023-.111c-.226-1.099-.483-2.345-1.377-2.958a4.898 4.898 0 0 0-1.017-.535 4.84 4.84 0 0 0-1.074-.279 2.323 2.323 0 0 0-.683-.04h-.002a.647.647 0 0 0-.198.07 2.175 2.175 0 0 0-.675.628 27.026 27.026 0 0 0-2.04 3.116 17.83 17.83 0 0 0-.977 2.038 15.585 15.585 0 0 0-.672 2.089 15.08 15.08 0 0 0-.362 2.177 16.479 16.479 0 0 0-.047 2.303 20.253 20.253 0 0 0 .277 2.452c.075.424.138.84.202 1.253l.12.775c.33-.023.71-.034 1.118-.034Zm3.166-17.359Z"/><path fill="#ffdaa7" d="M5.917 31.5v-3.86a2.646 2.646 0 0 0-1.416.396 4.08 4.08 0 0 0-1.167 1.544 6.116 6.116 0 0 1-1.97 1.92Z"/><path fill="#2c2b2d" d="M5.917 32H1.363a.5.5 0 0 1-.267-.922 5.708 5.708 0 0 0 1.814-1.763c.087-.14.163-.275.236-.407a3.25 3.25 0 0 1 1.082-1.29 3.099 3.099 0 0 1 1.682-.477h.007a.5.5 0 0 1 .5.5V31.5a.5.5 0 0 1-.5.5Zm-3.103-1h2.603v-2.806a1.901 1.901 0 0 0-.643.261 2.34 2.34 0 0 0-.754.94 9.73 9.73 0 0 1-.262.45A6.085 6.085 0 0 1 2.814 31Z"/><path fill="#fff" d="m13.696 12.18 4.667 2.407 2.872-3.801 2.75.253-2.981 5.867a2.856 2.856 0 0 1-3.801 1.259l-5.361-2.627"/><path fill="#2c2b2d" d="M18.454 18.955a3.332 3.332 0 0 1-1.47-.34l-5.362-2.628a.5.5 0 0 1 .44-.898l5.36 2.627a2.362 2.362 0 0 0 3.137-1.036l2.646-5.21-1.74-.16-2.702 3.579a.502.502 0 0 1-.63.142l-4.666-2.407a.5.5 0 1 1 .459-.889l4.292 2.214 2.617-3.465a.507.507 0 0 1 .445-.196l2.75.253a.5.5 0 0 1 .4.725l-2.98 5.867a3.357 3.357 0 0 1-2.996 1.822Z"/><path fill="#ffdaa7" d="M21.445 10.805a10.664 10.664 0 0 0 .708-1.993c.19-.766 1.28-1.836 1.77-1.744a10.875 10.875 0 0 1-.253 3.942l-2.079-.191"/><path fill="#2c2b2d" d="m23.67 11.51-.046-.001-2.08-.193a.396.396 0 0 1-.068-.011.469.469 0 0 1-.244-.047.499.499 0 0 1-.239-.665 10.244 10.244 0 0 0 .675-1.9c.216-.876 1.497-2.28 2.347-2.117a.497.497 0 0 1 .405.433 11.396 11.396 0 0 1 .046 2.212 11.198 11.198 0 0 1-.312 1.913.5.5 0 0 1-.484.377Zm-1.492-1.14 1.103.103a10.14 10.14 0 0 0 .188-1.327 10.3 10.3 0 0 0 .014-1.368 2.722 2.722 0 0 0-.844 1.153 11.112 11.112 0 0 1-.461 1.44Z"/></svg>