<svg xmlns="http://www.w3.org/2000/svg" data-name="Layer 1" viewBox="0 0 32 32"><path fill="#b72732" d="M26.257 26.614a.498.498 0 0 1-.354-.146l-2.038-2.027a.5.5 0 0 1 .707-.707l2.038 2.027a.5.5 0 0 1-.353.853Z"/><path fill="#e5303e" d="M25.915 25.674a8.036 8.036 0 0 1 2.86.518 9.21 9.21 0 0 1 1.973 1.23.997.997 0 0 1 .095 1.498l-1.683 1.682a.997.997 0 0 1-1.498-.095 9.21 9.21 0 0 1-1.229-1.972 8.036 8.036 0 0 1-.518-2.861"/><circle cx="7.108" cy="2.225" r="1.59" fill="#f7991d"/><circle cx="10.2" cy="2.453" r="1.554" fill="#f7991d"/><circle cx="12.485" cy="4.482" r="1.5" fill="#f7991d"/><circle cx="14.051" cy="7.099" r="1.567" fill="#f7991d"/><circle cx="15.874" cy="9.608" r="1.536" fill="#f7991d"/><circle cx="18.154" cy="11.667" r="1.543" fill="#f7991d"/><circle cx="20.604" cy="13.51" r="1.558" fill="#f7991d"/><circle cx="23.15" cy="15.097" r="1.5" fill="#f7991d"/><circle cx="25.256" cy="17.233" r="1.5" fill="#f7991d"/><circle cx="26.294" cy="20.046" r="1.5" fill="#f7991d"/><circle cx="25.246" cy="22.754" r="1.5" fill="#f7991d"/><circle cx="22.94" cy="24.691" r="1.5" fill="#f7991d"/><circle cx="20.05" cy="25.46" r="1.5" fill="#f7991d"/><circle cx="17.104" cy="24.636" r="1.5" fill="#f7991d"/><circle cx="14.983" cy="22.515" r="1.5" fill="#f7991d"/><circle cx="13.03" cy="20.046" r="1.639" fill="#f7991d"/><circle cx="11.303" cy="17.233" r="1.653" fill="#f7991d"/><circle cx="9.334" cy="14.737" r="1.564" fill="#f7991d"/><circle cx="6.976" cy="12.761" r="1.526" fill="#f7991d"/><circle cx="4.466" cy="10.986" r="1.525" fill="#f7991d"/><circle cx="2.488" cy="8.576" r="1.548" fill="#f7991d"/><circle cx="2.076" cy="5.514" r="1.575" fill="#f7991d"/><circle cx="3.988" cy="2.89" r="1.664" fill="#f7991d"/></svg>